<svg xmlns="http://www.w3.org/2000/svg" width="298.31" height="483.04" viewBox="0 0 298.31 483.04"><defs><style>.cls-1{fill:#24aeaa;}.cls-2{fill:#104057;}</style></defs><g id="Layer_2" data-name="Layer 2"><g id="Layer_2-2" data-name="Layer 2"><path class="cls-1" d="M298.29,25.91,270.13,456c-.4,6.18-7,11.19-15.36,11.74L20.37,483c-10.22.66-18.88-5.46-18.35-13l30-423.9c.42-6,6.64-10.89,14.75-11.64L279.32,13C289.72,12.07,298.79,18.23,298.29,25.91Z"/><path class="cls-2" d="M65.28,118.78c-5.65,1.11-19.85,3.92-32.06-2.27-4.17-2.12-7-4.72-10.81-9.07-10.65-12.15-18.3-20.88-21.24-34-6-27,13.3-48.16,14.29-49.21C31.25,7.48,52.73,3.45,61,1.88c6.81-1.28,19.36-3.5,34.38,0,6.11,1.43,18.08,4.23,26.26,13.28,1.44,1.59,7.22,8.31,8.11,21.05C132,67.63,102.78,111.37,65.28,118.78Z"/></g></g></svg>