<svg xmlns="http://www.w3.org/2000/svg" width="545.18" height="250.09" viewBox="0 0 545.18 250.09"><defs><style>.cls-1{fill:#24aeaa;}.cls-2{fill:#104057;}</style></defs><g id="Layer_2" data-name="Layer 2"><g id="Layer_2-2" data-name="Layer 2"><path class="cls-1" d="M522.58,250.07,30.94,226.47a14.16,14.16,0,0,1-13.42-12.88L.06,17.08A14.16,14.16,0,0,1,14.89,1.69L499.47,26.87a14.13,14.13,0,0,1,13.3,12.36l24.52,194.94A14.14,14.14,0,0,1,522.58,250.07Z"/><path class="cls-2" d="M426.4,54.73c-1.12-4.74-3.92-16.65,2.27-26.88,2.11-3.5,4.72-5.87,9.06-9.06,12.15-8.93,20.88-15.35,34-17.81,27-5.07,48.17,11.15,49.22,12,16.74,13.24,20.78,31.24,22.34,38.21,1.28,5.7,3.51,16.22,0,28.82-1.43,5.12-4.22,15.15-13.27,22-1.6,1.21-8.31,6.06-21,6.8C477.55,110.65,433.8,86.16,426.4,54.73Z"/></g></g></svg>