<svg id="Layer_1" data-name="Layer 1" xmlns="http://www.w3.org/2000/svg" viewBox="0 0 258.68 225.73"><defs><style>.cls-1,.cls-6{fill:#eae8e5;}.cls-1,.cls-2,.cls-7{stroke:#231f20;stroke-miterlimit:10;}.cls-1{stroke-width:3px;}.cls-2,.cls-7{fill:none;}.cls-3{fill:#722f1a;}.cls-4{fill:#9f6656;}.cls-5{fill:#d4c1ba;}.cls-7{stroke-width:5px;}.cls-8{fill:#fff;}</style></defs><path class="cls-1" d="M3.22,118.81c3.55-10,11.89-15.41,19.57-20.22,14.15-8.87,27.6-11.38,42.05-13.48,26.17-3.8,40.39-5.94,64.34-5.79a327,327,0,0,1,75.91,8.86s0,0,0,0c0,13.92,9.51,2,27.65,11,5.37,2.67,12.42,7.64,19,17.75a20.05,20.05,0,0,1,4.12,13.57,48.51,48.51,0,0,1-.57,5.55c-1.43,8.87-6,16.38-9.34,22.07-.06.11-.53.91-1,1.66-17.84,29.2-38.79,43.7-38.79,43.7a111.32,111.32,0,0,1-30.34,14.57c-23.82,7.8-43.91,6.83-56.18,6.13-11.19-.64-23-1.31-37.78-6.34-24.63-8.37-39.84-22.81-47.32-30C17.33,171.48,10.49,156.55,9,153.2,4.15,142.23-1,130.79,3.22,118.81Z"/><path class="cls-2" d="M21.94,133.45a151.69,151.69,0,0,1,25.2-12.93c18-7.2,32.58-9,46-10.56,6-.7,33.36-3.67,69.79,1,17.62,2.27,32.46,4.3,50.72,12.26a147.22,147.22,0,0,1,25.54,14.3"/><path class="cls-3" d="M93.4,0A33.17,33.17,0,0,1,94,8.89c-.19,2.43-.58,3.72.1,5.36,1,2.43,3.55,3.63,5.31,4.31,7.63,3,16.42,2.42,18.22,2.32a128.28,128.28,0,0,1,24.2,1.32,67.91,67.91,0,0,1,23.86,9c9,5.46,24,17.51,25.52,28.17a8.07,8.07,0,0,0,2,5c2.61,2.64,6.23,1.25,11.91,3,1.89.59,3.59,1.6,7,3.6,8,4.71,12.55,7.43,16.24,12.93a32.64,32.64,0,0,1,4.41,10.22,30.38,30.38,0,0,1,1.22,12.65c-.65,4.71-2.2,6-1.32,8.61,1,3.12,3.82,3.51,6.62,6,6,5.22,7.73,16,4.31,22.87-1.73,3.45-4.63,5.56-10.93,8.61-17.13,8.3-29.83,9.95-29.83,9.95-42.79,5.54-67.61,5.63-67.61,5.63-25.22.09-37.83.13-56.34-1.66-19.18-1.85-64.09-6.18-66.75-21.13-.56-3.12.66-7.08,1.46-9.69,2.46-8,7.32-12.93,10.6-16.24,4.38-4.41,7-7.08,11.6-8.62,4-1.34,7.36-1.12,8-3,.5-1.58-1.62-2.67-3.65-6.29a24.06,24.06,0,0,1-2.65-11.27c0-1.81.41-5.47,3.31-10.61C44.51,73.13,48.65,71,57.94,63.3c9.63-8,14.44-12,16.57-16.57,3.73-8,4-18.71,4-19.22.08-5.31-.73-8,1-12.26S84.07,8.07,86.11,6A41.8,41.8,0,0,1,93.4,0"/><path class="cls-4" d="M93.4,0a21.68,21.68,0,0,0-5,12.59c-.1,2.4-.3,7,2.65,10,2.17,2.17,4.89,2.28,10.27,2.65,0,0,7.32.49,19.56,1.65a116.64,116.64,0,0,1,17.23,3c8.65,2.12,14.27,3.5,20.55,7.29,5.45,3.29,13.58,8.19,16.9,18.23.45,1.36,3.58,11.3-1.32,21.21C170.09,85,162.63,88.3,151.73,93.13c-8.24,3.65-21.19,9.38-37.78,8-17.08-1.47-28.87-9.74-29.83-8-.66,1.24,4.76,5.62,9.28,8.28,3.61,2.13,8.51,4.25,17.57,5.64a85.24,85.24,0,0,0,26.51.33c16.14-2.38,26.91-8.74,35.13-13.59,10.54-6.22,15-11.15,17.56-16.9.41-.93,0-3.72,1.66-5,1.37-1,3.47-.76,6.3.33,3.86,1.48,11.59,4.45,16.24,12.92,4,7.34,5.18,17.81.33,25.85-3.79,6.29-9.66,8.45-20.55,12.27-7.31,2.56-15.07,4.37-39.44,7-13.84,1.46-20.76,2.2-25.52,2.32-25.86.65-43.64-4.49-44.08-2.65-.26,1.1,6,3.53,9.28,4.64,10.62,3.62,19.3,3.59,25.85,3.64,25.36.19,20.14,1.5,34.14,1,16.51-.6,25.78-.93,37.78-4.31,14.47-4.08,21.71-6.12,24.86-8.29A20,20,0,0,1,227,123a9.81,9.81,0,0,1,6,1c3.69,2.21,4.73,7.53,4.31,10.94-.35,2.73-2.16,8.34-14.26,14.25-21,10.27-48.37,9.36-95.11,10.6-16.68.45-33.38-.35-50.05.33A186.35,186.35,0,0,1,52,158.75c-13.58-1.53-20.4-3.63-25.18-8.95-1.43-1.59-4.46-5.06-4.31-9.61.17-5.21,4.4-8.74,8.61-12.26,3.55-3,9.21-7.7,17.24-8.62,11.58-1.33,20.92,6.1,21.54,5,.4-.73-3.89-3.2-9.61-9-4.23-4.25-6.62-6.64-8.29-10.6a25.44,25.44,0,0,1-1-15.58,27.75,27.75,0,0,1,6.63-12.59,29.7,29.7,0,0,1,12.92-8c2.71-.93,3.75-.92,15.91-2.32,10.48-1.2,13.27-1.61,15.58-2,8.33-1.36,12.56-2.08,15.9-4.3,1.64-1.09,7.54-5,8.29-11.6a13.53,13.53,0,0,0-1-6.63c-1.59-3.85-4.87-6.77-5.64-6.3s1,2.65,1.33,7c.15,1.87.52,6.2-1.66,9.28-1,1.46-2.33,2.22-9.28,4.31a142.44,142.44,0,0,1-16.24,4c-8,1.46-10,1.32-11.6,0a6.48,6.48,0,0,1-2.32-5.31c.28-3.19,3.37-3.52,6.63-8.28a16.46,16.46,0,0,0,3.31-8.95,17,17,0,0,0-1.65-7.29c-1.44-3.4-2.64-3.79-3.65-6.63a16.09,16.09,0,0,1-.66-7.29C84.59,7.47,92.1,1.08,93.4,0Z"/><path class="cls-5" d="M155.71,42.42a27.87,27.87,0,0,1,7.62,4.64c1.49,1.28,6.24,5.37,7.95,11.6C174.4,70,165.23,80.19,164,81.53c-3.73,4-8,5.83-16.24,9.28-13,5.4-25.87,8.22-26.18,7.29-.18-.56,4.26-2,15.25-7.62,8.44-4.29,12.74-6.5,16.24-9.61,4.4-3.93,9.47-8.45,9.94-14.92.18-2.5-1.43-7.11-4.64-16.24-1.07-3-2-5.55-2.65-7.29"/><path class="cls-5" d="M199.3,80.13a21,21,0,0,1,6,2.87,18.41,18.41,0,0,1,6.83,8c3.2,8.22-2.85,16.54-3.67,17.63-2.47,3.29-5.48,5-11.41,8.18-9.26,5-18.67,8.13-19,7.46-.18-.4,3-1.85,10.79-6.86,6-3.86,9-5.83,11.37-8.43,3-3.27,6.42-7,6.27-11.9-.05-1.87-1.61-5.19-4.71-11.76-1-2.18-1.92-4-2.54-5.23"/><path class="cls-5" d="M78.82,71.56a21.59,21.59,0,0,0-16.89,5.32c-6.81,6.73-5.25,17.44-5,18.86.68,4.26,2.63,7.17,6.48,12.81,6,8.82,13.12,15.81,13.71,15.28.35-.32-1.86-3.09-6.55-11.26-3.6-6.29-5.42-9.51-6.34-13-1.16-4.46-2.5-9.6-.06-14.31.95-1.82,3.94-4.43,9.87-9.57,2-1.72,3.64-3.12,4.8-4.08"/><path class="cls-5" d="M43.06,126.44a15.75,15.75,0,0,0-4.33,1.32,10.93,10.93,0,0,0-5,4.25c-2.44,4.56,1.65,9.72,2.2,10.4,1.67,2,3.75,3.18,7.86,5.38,6.43,3.45,13,5.79,13.22,5.42s-2.09-1.25-7.46-4.6c-4.12-2.57-6.22-3.89-7.83-5.53-2-2.06-4.37-4.43-4.16-7.23.09-1.09,1.26-2.91,3.6-6.53.78-1.2,1.44-2.19,1.91-2.88"/><path class="cls-6" d="M9,129.34a71.19,71.19,0,0,0,1.36,11c8,39.28,47.54,60.36,56.51,65.15,38.57,20.58,77.38,15.12,95.54,9.9.68-.2,3.79-1.1,8-2.59,11-3.93,34-12.4,53.79-33.79a123.91,123.91,0,0,0,20.68-31c5-10.2,7.85-19.11,7.23-19.4s-2.38,5-7.49,9.44c-3,2.59-5.92,3.68-13.27,5.75a251.45,251.45,0,0,1-28.47,6.64c-6.52,1.12-12,1.85-15.45,2.29-4.15.55-8.21,1.08-13.28,1.54-7.8.7-9.12.43-23.36,1.14-9.41.48-9.84.65-15.06.77-7,.16-7.65-.11-16.09-.13-15.5,0-19.12.89-30.12,0-1.36-.11-4.84-.41-9.32-1-7.2-1-11-2-19.41-3.57-10.83-2.09-9.39-1.42-14.42-2.56-10.08-2.27-17.42-3.93-24.39-8.93A41.81,41.81,0,0,1,8.67,123.71"/><path class="cls-7" d="M10.71,122.22A44,44,0,0,0,21.6,136.86a44.81,44.81,0,0,0,14,8.17c16.95,6.52,34.85,8.17,41.11,8.71,26,2.23,45.58,2.48,51.54,2.53,20.5.17,34.41-.6,38.34-.83,14.83-.87,24.14-2.07,34.38-3.41,4.06-.53,11.1-2.05,25.19-5.1,4.74-1,13-2.92,18.39-8.8A21,21,0,0,0,250,122.22"/><path class="cls-8" d="M235.81,158.59c.21-.48.82-1.85,1.7-4.34,1.73-4.92,1.86-6.74,2.38-6.73s1.32,2.86,1.19,5.45a16.73,16.73,0,0,1-1,4.6,43.55,43.55,0,0,1-2.55,6.29,35.18,35.18,0,0,1-2.89,5.28,33.85,33.85,0,0,1-4.34,4.94,34.86,34.86,0,0,1-4.69,4.08,31,31,0,0,1-5.87,3.24,26.3,26.3,0,0,1-6.29,2c-1.58.27-5.26.72-5.46,0s3.22-1.76,9.11-5.2a74.33,74.33,0,0,0,6.73-4.39c3.05-2.25,4.66-3.46,6.38-5.62a40.4,40.4,0,0,0,3.4-5.36C234.92,160.53,235.63,159,235.81,158.59Z"/></svg>