<svg id="Layer_1" data-name="Layer 1" xmlns="http://www.w3.org/2000/svg" viewBox="0 0 118.4 114.26"><defs><style>.cls-1,.cls-6{fill:#eae8e5;}.cls-1,.cls-2,.cls-7{stroke:#231f20;stroke-miterlimit:10;}.cls-1{stroke-width:3px;}.cls-2,.cls-7{fill:none;}.cls-3{fill:#722f1a;}.cls-4{fill:#9f6656;}.cls-5{fill:#d4c1ba;}.cls-7{stroke-width:5px;}.cls-8{fill:#fff;}.cls-9{fill:#9d9d9c;isolation:isolate;opacity:0.33;}</style></defs><path class="cls-1" d="M2.21,52.89c1.61-4.45,5.4-6.86,8.88-9,6.42-4,12.53-5.07,19.09-6,11.88-1.69,18.33-2.65,29.2-2.58a151.21,151.21,0,0,1,34.45,3.94h0c0,6.2,4.32.89,12.55,4.9a21.82,21.82,0,0,1,8.63,7.9,8.82,8.82,0,0,1,1.87,6,22.46,22.46,0,0,1-.26,2.47c-.65,4-2.72,7.3-4.24,9.83l-.45.74c-8.1,13-17.61,19.45-17.61,19.45a51.24,51.24,0,0,1-13.77,6.49,67.28,67.28,0,0,1-25.5,2.73C50,99.51,44.61,99.21,37.9,97A56.49,56.49,0,0,1,16.42,83.62C8.61,76.34,5.51,69.69,4.83,68.2,2.63,63.31.29,58.22,2.21,52.89Z"/><path class="cls-2" d="M10.71,59.41a68.75,68.75,0,0,1,11.43-5.76c8.17-3.2,14.79-4,20.88-4.7a137,137,0,0,1,31.68.44c8,1,14.73,1.92,23,5.46a66.94,66.94,0,0,1,11.59,6.37"/><path class="cls-3" d="M43.14,0a14.61,14.61,0,0,1,.27,4,4.78,4.78,0,0,0,.05,2.38,3.93,3.93,0,0,0,2.41,1.92,20.82,20.82,0,0,0,8.27,1,60.17,60.17,0,0,1,11,.59,31.2,31.2,0,0,1,10.83,4C80,16.32,86.84,21.68,87.53,26.43a3.58,3.58,0,0,0,.91,2.22c1.19,1.18,2.83.56,5.41,1.34A16.17,16.17,0,0,1,97,31.59c3.63,2.1,5.69,3.31,7.37,5.76a14.59,14.59,0,0,1,2,4.55,13.27,13.27,0,0,1,.55,5.63c-.29,2.1-1,2.67-.6,3.83.46,1.39,1.74,1.56,3,2.67a9.07,9.07,0,0,1,2,10.18c-.78,1.54-2.1,2.48-5,3.84a49.81,49.81,0,0,1-13.54,4.43A279.39,279.39,0,0,1,62.13,75C50.68,75,45,75,36.55,74.24c-8.7-.82-29.09-2.75-30.29-9.4a10,10,0,0,1,.66-4.32,17.2,17.2,0,0,1,4.81-7.23c2-2,3.18-3.15,5.27-3.83,1.81-.6,3.34-.5,3.63-1.34s-.74-1.19-1.66-2.8a10.56,10.56,0,0,1-1.2-5,9.54,9.54,0,0,1,1.5-4.72c1.68-3,3.56-4,7.78-7.4s6.55-5.34,7.52-7.38a24.14,24.14,0,0,0,1.81-8.55c0-2.37-.33-3.56.46-5.46a12.53,12.53,0,0,1,3-4.12A18.89,18.89,0,0,1,43.14,0"/><path class="cls-4" d="M43.14,0a9.56,9.56,0,0,0-2.27,5.6c0,1.07-.14,3.12,1.2,4.46,1,1,2.22,1,4.66,1.18,0,0,3.33.21,8.88.73a53,53,0,0,1,7.82,1.34c3.93.94,6.48,1.55,9.33,3.24,2.47,1.47,6.16,3.65,7.67,8.12a12.76,12.76,0,0,1-.6,9.44c-1.88,3.73-5.27,5.2-10.22,7.35C65.87,43.08,60,45.63,52.47,45c-7.76-.66-13.11-4.34-13.54-3.56-.3.55,2.16,2.5,4.21,3.68a21.15,21.15,0,0,0,8,2.51,39.2,39.2,0,0,0,12,.15c7.32-1.06,12.21-3.89,15.94-6,4.79-2.77,6.81-5,8-7.52.19-.42,0-1.66.76-2.23s1.57-.34,2.86.15a13.1,13.1,0,0,1,7.37,5.75c1.81,3.27,2.35,7.93.15,11.51-1.72,2.8-4.39,3.76-9.33,5.46C85.55,56,82,56.82,71,58c-6.28.65-9.43,1-11.59,1-11.73.29-19.8-2-20-1.18-.12.49,2.72,1.57,4.21,2.06a35.07,35.07,0,0,0,11.73,1.63c11.51.08,9.14.66,15.5.44,7.49-.27,11.7-.41,17.15-1.92,6.56-1.81,9.85-2.72,11.28-3.69a9.28,9.28,0,0,1,4.53-1.61,4.56,4.56,0,0,1,2.72.45c1.68,1,2.15,3.35,2,4.87-.16,1.21-1,3.71-6.47,6.34C92.45,71,80,70.58,58.82,71.13c-7.57.2-15.15-.15-22.72.15a87,87,0,0,1-11.75-.61c-6.16-.68-9.26-1.62-11.43-4a6.26,6.26,0,0,1-2-4.27c.08-2.32,2-3.89,3.91-5.46a14.74,14.74,0,0,1,7.83-3.84c5.25-.59,9.49,2.72,9.77,2.23.19-.33-1.76-1.43-4.36-4-1.92-1.89-3-2.95-3.76-4.72a11,11,0,0,1-.45-6.93,12.18,12.18,0,0,1,3-5.61,13.61,13.61,0,0,1,5.87-3.56c1.23-.41,1.7-.41,7.22-1,4.76-.54,6-.72,7.07-.89,3.78-.61,5.7-.93,7.22-1.92.74-.48,3.42-2.22,3.76-5.16a6,6,0,0,0-.45-3c-.72-1.72-2.21-3-2.56-2.81s.45,1.18.6,3.12A6.29,6.29,0,0,1,54.88,23c-.46.65-1.06,1-4.21,1.92a66.62,66.62,0,0,1-7.38,1.78c-3.63.65-4.53.59-5.26,0A2.85,2.85,0,0,1,37,24.34c.12-1.42,1.53-1.57,3-3.69a7.25,7.25,0,0,0,1.5-4,7.48,7.48,0,0,0-.75-3.25c-.65-1.51-1.2-1.69-1.66-2.95a7.16,7.16,0,0,1-.3-3.25C39.14,3.33,42.55.48,43.14,0Z"/><path class="cls-5" d="M71.42,18.88A12.77,12.77,0,0,1,74.88,21a10.9,10.9,0,0,1,3.61,5.16c1.41,5.05-2.75,9.59-3.31,10.18-1.69,1.78-3.63,2.6-7.37,4.13-5.9,2.41-11.74,3.66-11.88,3.25-.08-.25,1.93-.89,6.92-3.39,3.83-1.91,5.78-2.9,7.37-4.28,2-1.75,4.3-3.76,4.51-6.64.09-1.11-.64-3.17-2.1-7.23-.49-1.34-.91-2.47-1.2-3.25"/><path class="cls-5" d="M91.21,35.67A9.41,9.41,0,0,1,93.93,37,8.23,8.23,0,0,1,97,40.51c1.45,3.66-1.29,7.36-1.67,7.85-1.12,1.46-2.48,2.22-5.17,3.64-4.21,2.22-8.48,3.62-8.63,3.32s1.36-.82,4.9-3a25.58,25.58,0,0,0,5.16-3.76c1.36-1.45,2.91-3.11,2.85-5.29,0-.84-.74-2.31-2.14-5.24-.46-1-.87-1.78-1.16-2.33"/><path class="cls-5" d="M36.52,31.86a9.91,9.91,0,0,0-7.66,2.36c-3.09,3-2.39,7.77-2.27,8.4.31,1.9,1.19,3.19,2.94,5.7,2.72,3.93,5.95,7,6.22,6.8s-.84-1.37-3-5c-1.64-2.8-2.46-4.23-2.88-5.79-.53-2-1.13-4.27,0-6.37.43-.81,1.79-2,4.48-4.26.91-.76,1.65-1.38,2.18-1.81"/><path class="cls-5" d="M20.29,56.29a7.38,7.38,0,0,0-2,.58,4.91,4.91,0,0,0-2.27,1.9c-1.11,2,.75,4.32,1,4.62a10.88,10.88,0,0,0,3.56,2.4c2.92,1.54,5.9,2.58,6,2.41s-.95-.55-3.38-2a19.32,19.32,0,0,1-3.56-2.46c-.9-.91-2-2-1.88-3.22,0-.48.57-1.29,1.63-2.9.35-.54.65-1,.87-1.28"/><path class="cls-6" d="M4.83,57.58a31,31,0,0,0,.62,4.89C9.08,80,27,89.34,31.1,91.48c17.5,9.16,35.12,6.73,43.36,4.4.31-.09,1.72-.49,3.63-1.15,5-1.75,15.44-5.52,24.42-15a55,55,0,0,0,9.38-13.8c2.27-4.54,3.57-8.51,3.29-8.64s-1.08,2.23-3.4,4.2c-1.37,1.16-2.69,1.64-6,2.56a116.19,116.19,0,0,1-12.92,3c-3,.5-5.45.82-7,1-1.88.24-3.73.48-6,.68-3.54.32-4.14.2-10.6.51-4.27.22-4.47.29-6.84.34-3.17.08-3.47,0-7.3,0-7,0-8.68.39-13.67,0-.62,0-2.2-.19-4.23-.45-3.27-.44-5-.89-8.81-1.59-4.92-.93-4.26-.63-6.55-1.14-4.57-1-7.9-1.75-11.07-4a18.69,18.69,0,0,1-6-7.25"/><path class="cls-7" d="M5.61,54.41a19.64,19.64,0,0,0,4.94,6.51,20.24,20.24,0,0,0,6.36,3.64,71.92,71.92,0,0,0,18.65,3.88c11.81,1,20.69,1.1,23.4,1.12,9.3.08,15.62-.26,17.4-.36,6.73-.39,11-.93,15.6-1.52,1.85-.24,5-.92,11.44-2.27,2.15-.45,5.9-1.3,8.34-3.92a9.21,9.21,0,0,0,2.48-7.08"/><path class="cls-8" d="M107.78,70.6c.09-.22.37-.83.77-1.93.78-2.19.84-3,1.08-3s.6,1.27.54,2.43a7.45,7.45,0,0,1-.45,2,20.13,20.13,0,0,1-1.16,2.8,17.64,17.64,0,0,1-5.41,6.37,14,14,0,0,1-2.67,1.44,12.41,12.41,0,0,1-2.85.89c-.72.12-2.39.32-2.48,0s1.46-.78,4.14-2.31a33.63,33.63,0,0,0,3-2,13.47,13.47,0,0,0,2.9-2.5,18.6,18.6,0,0,0,1.54-2.38C107.37,71.46,107.7,70.78,107.78,70.6Z"/><ellipse class="cls-9" cx="59.15" cy="112.17" rx="41.24" ry="2.09"/></svg>