<svg xmlns="http://www.w3.org/2000/svg" viewBox="0 0 432.94 450.52"><defs><style>.cls-1{isolation:isolate;}.cls-2{fill:#7a370a;}.cls-3{fill:#f39200;}.cls-4{fill:#1d1d1b;}.cls-5{fill:#dadada;opacity:0.79;}.cls-11,.cls-12,.cls-5,.cls-8{mix-blend-mode:multiply;}.cls-6{fill:#d3a157;}.cls-7{fill:#e0b070;}.cls-8{fill:#cbbba0;opacity:0.63;}.cls-9{fill:#fff;opacity:0.58;}.cls-10{fill:#f9b233;}.cls-11{fill:#ca9e67;opacity:0.37;}.cls-12{fill:#9d9d9c;opacity:0.33;}</style></defs><g class="cls-1"><g id="Layer_1" data-name="Layer 1"><path class="cls-2" d="M243.13,382.72c23.11,2,50.35-2.18,60.39-28.45,9.83-25.7-2.58-51.43-18.92-69-18-19.37-40.69-34.45-61.23-50.7-15.31-12.12-55.17-34.83-31.78-60,16.31-17.57,51.84-15.46,72.67-15.19,28,.37,55.67,4.42,83.33,7.73,20.3,2.43,48.45,9.41,68.19-1.68,26.87-15.09,16.89-48.6,5.62-69.38C369.89,1,228.86-14.8,132.69,11.15,85.21,24,31.77,52.43,8.71,100.91c-28.51,59.91,18,106.47,67.23,124.46,24,8.74,62.55,11.8,71.34,41.79,3.42,11.67-.11,27.71-11.93,33.73-9.12,4.65-20.88-2-27.94,8.63C80.58,349.93,224.11,381.09,243.13,382.72Z"/><path class="cls-3" d="M239.53,53.84a31.64,31.64,0,0,0-48.77,0L104.67,158a14.39,14.39,0,0,0-2.18,14.75l54.64,130,51.2,121.84a7.39,7.39,0,0,0,13.62,0l51.23-121.84,54.66-130a14.41,14.41,0,0,0-2.17-14.76Z"/><path class="cls-4" d="M215.14,431.67h0a9.75,9.75,0,0,1-9.12-6.06L100.19,173.76a16.85,16.85,0,0,1,2.55-17.32L188.83,52.25a34.13,34.13,0,0,1,52.62,0h0l86.14,104.22a16.85,16.85,0,0,1,2.56,17.32L224.25,425.61A9.73,9.73,0,0,1,215.14,431.67Zm0-386.81a29,29,0,0,0-22.45,10.58l-86.1,104.19a11.84,11.84,0,0,0-1.79,12.19L210.63,423.68a4.76,4.76,0,0,0,4.51,3h0a4.76,4.76,0,0,0,4.5-3l105.9-251.83a11.88,11.88,0,0,0-1.8-12.2L237.6,55.43A29.05,29.05,0,0,0,215.14,44.86Z"/><path class="cls-5" d="M325.67,158.06,258.81,77.18c-3.25,20.6-21.64,43.92-49.34,59.52-35,19.72-72.84,20.35-89.41,2.71L104.67,158a14.39,14.39,0,0,0-2.18,14.75l54.63,130,51.21,121.84a7.39,7.39,0,0,0,13.62,0l51.23-121.84,54.66-130A14.41,14.41,0,0,0,325.67,158.06Z"/><path class="cls-5" d="M325.67,158.06,287,111.24c-11.87,14.41-28.26,28.31-48,39.71-52,30-107.5,31.34-123.91,2.92a33,33,0,0,1-2.49-5.4l-7.9,9.57a14.39,14.39,0,0,0-2.18,14.75l54.63,130,51.55,122.66a7,7,0,0,0,12.93,0l51.58-122.65,54.66-130A14.41,14.41,0,0,0,325.67,158.06Z"/><path class="cls-6" d="M298.51,107.35l33.37,19C253,228,253.13,297.48,252.34,303.06c0,.09-.25,3.18-.28,3.25-.63,2-9.33,1-19.44-2.19s-17.78-7.41-17.15-9.41C215.47,294.71,211.88,222.8,298.51,107.35Z"/><path class="cls-4" d="M248.35,309.33c-5.13,0-12.43-2.06-16.33-3.3a76.5,76.5,0,0,1-13-5.31c-2.85-1.57-6-3.66-5.6-6.19-.07-2.48-.24-20.2,9.13-50.79C231.7,214,252,166,296.91,106.15a2,2,0,0,1,2.59-.54l33.37,19a2,2,0,0,1,.6,3c-47.17,60.81-75.21,122.48-79,173.66-.07,1-.12,1.66-.18,2.11-.05.74-.23,3.19-.36,3.6C253.4,308.69,251.21,309.33,248.35,309.33Zm-30.88-14.57c.93,1.21,6.13,4.4,15.76,7.46,9.15,2.9,15.11,3.39,16.93,3,.07-.86.17-2.12.19-2.3a.91.91,0,0,1,0-.17c0-.32.1-1,.16-1.89,3.77-51.43,31.58-113.15,78.37-174l-29.83-17c-43.74,58.61-63.59,105.53-72.56,134.66-9.77,31.79-9,49.81-9,50Z"/><path class="cls-4" d="M239.37,306.38h-.1a2,2,0,0,1-1.9-2.1c0-.22,1.23-23.18,11.67-57a372.11,372.11,0,0,1,68.28-125.55,2,2,0,1,1,3.08,2.55,368.23,368.23,0,0,0-67.5,124c-10.32,33.34-11.53,55.91-11.54,56.13A2,2,0,0,1,239.37,306.38Z"/><path class="cls-4" d="M225.87,303.69h-.11a2,2,0,0,1-1.89-2.1c0-.23,1.28-23,11.83-57.25,9.71-31.57,29.53-79.77,68.74-130.06a2,2,0,1,1,3.15,2.46c-74.3,95.29-79.68,184.17-79.73,185.05A2,2,0,0,1,225.87,303.69Z"/><path class="cls-7" d="M298.51,107.35c-1,1.82,5.6,7.54,14.82,12.78s17.52,8,18.55,6.19-5.59-7.54-14.81-12.78S299.55,105.53,298.51,107.35Z"/><path class="cls-4" d="M330.25,128.82c-5,0-13.68-4.55-17.91-6.95-5.54-3.15-18.15-11-15.57-15.51h0c2.58-4.54,15.74,2.29,21.28,5.44s18.14,11,15.56,15.51C333,128.38,331.81,128.82,330.25,128.82Zm-29-19.91c1.72,1.94,6,5.45,13.06,9.48s12.27,5.88,14.82,6.37c-1.72-1.94-6-5.45-13.06-9.48S303.81,109.4,301.26,108.91Z"/><path class="cls-8" d="M232.62,304.12c-1.3-19.06,19.54-109.59,79.51-185.4l-13.62-11.37c-60.31,80.23-89.84,168.81-82.6,189.11Z"/><path class="cls-9" d="M246.05,302.34H246a1.5,1.5,0,0,1-1.44-1.56c0-.2.91-20.63,10.61-51.85,8.94-28.77,27.41-72.91,64.61-119.88a1.5,1.5,0,0,1,2.35,1.86c-70.62,89.16-74.54,169.19-74.57,170A1.5,1.5,0,0,1,246.05,302.34Z"/><path class="cls-6" d="M178.27,44.56,141,53.76C189.31,173,174.6,287.6,173.84,293.19a.66.66,0,0,0,0,.24c.06,2.09,8.71,3.51,19.3,3.17s19.13-2.31,19.06-4.4C212.17,292.2,230.32,179.19,178.27,44.56Z"/><path class="cls-4" d="M189.72,298.65c-7.13,0-17.77-.74-17.91-5.16a2.46,2.46,0,0,1,.06-.66c.81-6.1,15.14-120.15-32.72-238.32a2,2,0,0,1,.08-1.66,1.93,1.93,0,0,1,1.3-1l37.26-9.2a2,2,0,0,1,2.35,1.22,559.24,559.24,0,0,1,36.6,174.94c1.88,43.18-2.24,71.4-2.57,73.6-.3,5-14.73,6-21,6.22C192.2,298.63,191,298.65,189.72,298.65Zm-13.83-5.74c1.6.84,7.49,2,17.16,1.69,10.06-.32,15.93-2,17.17-2.89.37-2.45,4.39-30.3,2.51-72.88A554.84,554.84,0,0,0,177,46.92l-33.32,8.23C190.06,171.33,177.16,283,175.89,292.91Zm-.12.82Zm-1.93-.54h0Z"/><path class="cls-4" d="M186.55,297l-.23,0a2,2,0,0,1-1.76-2.21c.16-1.32,14.8-133.46-32-239.85a2,2,0,1,1,3.66-1.61C180.94,109.48,188.4,172.26,190.31,215c2.08,46.33-1.73,79.88-1.77,80.21A2,2,0,0,1,186.55,297Z"/><path class="cls-4" d="M200.28,298.09h-.23a2,2,0,0,1-1.76-2.21c.15-1.32,14.38-132.78-31.3-244.74a2,2,0,1,1,3.7-1.51c24.08,59,31.39,123,33.27,166.19,2,46.82-1.66,80.18-1.7,80.51A2,2,0,0,1,200.28,298.09Z"/><ellipse class="cls-7" cx="159.64" cy="49.16" rx="19.19" ry="3.79" transform="translate(-7.13 39.68) rotate(-13.86)"/><path class="cls-4" d="M146,57.06c-3.57,0-6.39-.71-6.92-2.82-1.25-5.07,13-9.17,19.19-10.7s20.71-4.53,22,.54h0c1.26,5.07-13,9.17-19.18,10.7C157.42,55.67,151,57.06,146,57.06ZM144.08,53c2.58.22,8.08-.15,16-2.11s13-4.18,15.13-5.57c-2.58-.22-8.08.15-16,2.1S146.26,51.61,144.08,53Zm32.63-7.36h0Z"/><path class="cls-8" d="M162.54,52.32c46.12,118.1,30.57,244.28,30.57,244.28l19.06-4.4c18.42-132-33.9-247.64-33.9-247.64Z"/><path class="cls-9" d="M180.05,291.28h-.22a1.5,1.5,0,0,1-1.26-1.71c.16-1.07,15.42-109.37-30.39-229.1A1.5,1.5,0,1,1,151,59.39c24.08,63,31.11,122.29,32.76,161,1.79,41.93-2.17,69.37-2.21,69.64A1.5,1.5,0,0,1,180.05,291.28Z"/><path class="cls-6" d="M215.27,28.59l38.09,4.81C219.2,157.48,247.1,269.56,248.5,275a.86.86,0,0,1,.06.23c.18,2.08-8.24,4.49-18.81,5.38s-19.26-.07-19.44-2.16C210.31,278.48,179.19,168.34,215.27,28.59Z"/><path class="cls-4" d="M222.22,283a59.51,59.51,0,0,1-6.3-.31c-3.32-.37-7.14-1.14-7.57-3.79-.61-2.23-8-29.76-11.08-72.79a558.73,558.73,0,0,1,16.07-178,2,2,0,0,1,2.19-1.49l38.08,4.82a2,2,0,0,1,1.67,2.51c-33.83,122.91-6.39,234.51-4.87,240.5a2.36,2.36,0,0,1,.14.68c.24,2.82-3.52,4.27-6.82,5.21a75.57,75.57,0,0,1-13.81,2.32C227.24,282.86,224.64,283,222.22,283Zm-10-5.21c1.35.77,7.36,1.73,17.4.88,9.64-.81,15.35-2.65,16.84-3.66-2.41-9.67-28.17-119.13,4.39-239.89l-34-4.31a555.16,555.16,0,0,0-15.52,174.88C204.33,248.19,211.54,275.39,212.19,277.77Zm.12.54Zm34.34-2.53Z"/><path class="cls-4" d="M236.08,280.31a2,2,0,0,1-1.94-1.54c-.08-.32-7.75-33.2-11.06-79.45C220,156.6,220.15,93.38,238.15,34.74A2,2,0,0,1,242,35.92c-34.13,111.13-4.25,240.64-3.95,241.93a2,2,0,0,1-1.48,2.41A1.88,1.88,0,0,1,236.08,280.31Z"/><path class="cls-4" d="M222.58,283a2,2,0,0,1-2-1.54c-.07-.33-7.62-33-11-79.77-3.14-43.16-3.3-107.5,13.78-168.93a2,2,0,0,1,3.86,1.07c-32.4,116.54-3,245.43-2.72,246.72a2,2,0,0,1-1.5,2.4A1.73,1.73,0,0,1,222.58,283Z"/><path class="cls-7" d="M215.27,28.59c-.26,2.07,8,4.83,18.57,6.16s19.25.73,19.52-1.35-8.05-4.83-18.57-6.16S215.54,26.51,215.27,28.59Z"/><path class="cls-4" d="M244.28,37.49a90.46,90.46,0,0,1-10.69-.75c-6.32-.8-21-3.22-20.3-8.4h0c.66-5.19,15.43-3.89,21.75-3.09s21,3.22,20.3,8.4C255,36.67,249.78,37.49,244.28,37.49ZM218.41,29c2.33,1.14,7.6,2.77,15.68,3.79s13.59.75,16.13.24c-2.33-1.14-7.6-2.77-15.68-3.79S221,28.47,218.41,29Z"/><path class="cls-8" d="M231.81,34.47c-32.13,122.65-2.06,246.17-2.06,246.17l-19.44-2.16c-33.59-128.93,5-249.89,5-249.89Z"/><path class="cls-9" d="M241.93,273.86a1.49,1.49,0,0,1-1.44-1.11c-.07-.26-7.19-27.06-10.28-68.91-2.84-38.62-2.74-98.36,13.89-163.69a1.5,1.5,0,1,1,2.9.74c-31.62,124.27-3.9,230-3.62,231.08a1.5,1.5,0,0,1-1.06,1.84A1.31,1.31,0,0,1,241.93,273.86Z"/><path class="cls-6" d="M131.78,86.28l-30.73,17.31c84.17,140.48,92.3,230.82,95.24,264,.22,2,8.24,2.82,17.92,1.78s17.36-3.51,17.14-5.53C227.56,335.91,221.06,235.79,131.78,86.28Z"/><path class="cls-4" d="M205.91,371.81c-5.59,0-11.26-.81-11.61-4.05-3-33.62-10.89-122.82-95-263.14a2,2,0,0,1,.73-2.77l30.72-17.31a2,2,0,0,1,2.7.72c83,139,94.6,235,98.95,271.1.33,2.76.62,5.15.89,7.16.31,2.86-3.4,4.4-6.22,5.31a65.43,65.43,0,0,1-12.68,2.48A82.59,82.59,0,0,1,205.91,371.81Zm-7.67-5c1.41.7,6.89,1.44,15.76.5s14.06-2.84,15.3-3.82c-.25-1.88-.52-4.12-.83-6.68C224.16,321.1,212.75,226.4,131.06,89l-27.24,15.34C187,243.7,195.21,332.76,198.24,366.84Z"/><path class="cls-4" d="M205.84,371.78h-.05a2,2,0,0,1-1.95-2c0-.28.55-27.78-10.64-74.3-10.32-42.94-33-111.31-82.63-193.22a2,2,0,0,1,3.42-2.07c49.91,82.44,72.77,151.3,83.15,194.56,11.27,47,10.7,74.85,10.7,75.13A2,2,0,0,1,205.84,371.78Z"/><path class="cls-4" d="M219.55,370.58h0a2,2,0,0,1-2-2c0-.29.15-28.65-11.43-76-10.69-43.72-33.84-113-83.44-195a2,2,0,1,1,3.42-2.07c49.92,82.43,73.21,152.22,84,196.26,11.67,47.8,11.5,76.53,11.5,76.82A2,2,0,0,1,219.55,370.58Z"/><path class="cls-7" d="M131.78,86.28c1,1.77-5.08,7.08-13.56,11.86s-16.17,7.22-17.17,5.45,5.08-7.08,13.56-11.86S130.78,84.51,131.78,86.28Z"/><path class="cls-4" d="M102.74,106.13c-1.57,0-2.8-.45-3.43-1.56-1.38-2.46,1.42-5.34,3.65-7.29A65.5,65.5,0,0,1,113.63,90c5.14-2.9,17.37-9.16,19.89-4.69,1.38,2.46-1.42,5.34-3.65,7.29a65.5,65.5,0,0,1-10.67,7.29C115.34,102.06,107.48,106.13,102.74,106.13Zm26.33-18.32c-2.36.43-7.1,2.06-13.48,5.66s-10.24,6.8-11.83,8.59c2.36-.43,7.1-2.06,13.48-5.66S127.48,89.6,129.07,87.81Zm1.47-.08h0Z"/><path class="cls-8" d="M118.22,98.14c77.23,136.71,92.53,227.69,94.58,271.32L231,364.9C224.5,232.3,131.78,86.28,131.78,86.28l-2.43,3.55Z"/><path class="cls-9" d="M201,366a1.5,1.5,0,0,1-1.49-1.4c0-.3-2.23-30.41-14.55-76.85a693.59,693.59,0,0,0-76.77-179.44,1.5,1.5,0,0,1,2.57-1.56A696.59,696.59,0,0,1,187.9,287.11c12.38,46.7,14.6,77,14.62,77.32a1.49,1.49,0,0,1-1.39,1.6Z"/><path class="cls-6" d="M278.4,49.72l30.75,13c-64,141.14-61.86,227-61,258.41,0,1.92-7.44,3.53-16.65,3.61s-16.7-1.44-16.71-3.36C215.3,294.72,210.61,199.91,278.4,49.72Z"/><path class="cls-4" d="M230.82,326.7a61.37,61.37,0,0,1-11.57-1c-2.78-.56-6.49-1.62-6.51-4.37,0-2,0-4.26.07-6.89.19-34.42.71-125.88,63.77-265.57a2,2,0,0,1,2.6-1l30.74,12.95A2,2,0,0,1,311,62a2,2,0,0,1,0,1.55C247.1,204.46,249.28,289.15,250.1,321c0,5-13,5.62-18.64,5.66Zm-14.07-5.89c1.34.77,6.41,1.95,14.68,1.88s13.34-1.32,14.66-2.11c-.83-32.35-2.66-116.94,60.39-256.86l-27.06-11.4C217.51,190.24,217,280.45,216.81,314.5,216.79,316.89,216.78,319,216.75,320.81Z"/><path class="cls-4" d="M237.92,325a2,2,0,0,1-2-1.82c0-.27-2.31-27.65,3.91-73.5,5.73-42.25,20-109.37,55.73-189.19a2,2,0,0,1,3.65,1.63c-35.49,79.39-49.72,146.11-55.42,188.09-6.15,45.42-3.91,72.35-3.89,72.62a2,2,0,0,1-1.82,2.17Z"/><path class="cls-4" d="M226.35,326.57a2,2,0,0,1-2-1.75c0-.27-3.3-27.28,2.51-73.49,5.35-42.56,19.72-110.69,57.75-193.58a2,2,0,1,1,3.64,1.67c-37.82,82.43-52.1,150.13-57.42,192.41-5.75,45.72-2.55,72.23-2.52,72.49a2,2,0,0,1-1.73,2.23Z"/><path class="cls-7" d="M278.4,49.72c-.75,1.78,5.53,6.11,14,9.69s16,5,16.73,3.27-5.53-6.11-14-9.69S279.15,48,278.4,49.72Z"/><path class="cls-4" d="M306.9,65.43a19.06,19.06,0,0,1-3.59-.42,62.37,62.37,0,0,1-11.66-3.76,63,63,0,0,1-10.84-5.71c-2.34-1.62-5.32-4.06-4.25-6.59h0c1.06-2.54,4.9-2.11,7.68-1.56a70.68,70.68,0,0,1,22.5,9.48c2.33,1.61,5.32,4.05,4.25,6.58C310.35,65,308.71,65.43,306.9,65.43ZM281.43,51c1.8,1.53,5.69,4,11.77,6.57s10.57,3.61,12.92,3.83c-1.8-1.53-5.69-4-11.77-6.56S283.78,51.22,281.43,51Zm-3-1.28h0Z"/><path class="cls-8" d="M292.42,59.41c-57.84,136.85-62.41,224-59.63,265.26l-17.57-2.33C207,197,278.4,49.72,278.4,49.72l2.66,3.08Z"/><path class="cls-9" d="M243,319a1.51,1.51,0,0,1-1.5-1.4c0-.28-1.85-28.42,4.47-73.21,5.83-41.3,20-105.65,54.31-177.74A1.5,1.5,0,0,1,303,68C268.83,139.71,254.75,203.75,249,244.84c-6.28,44.48-4.46,72.31-4.45,72.59a1.5,1.5,0,0,1-1.39,1.6Z"/><path class="cls-10" d="M138.77,259.2l18.32,43.6L208.3,424.64a7.38,7.38,0,0,0,13.61,0l51.24-121.84,54.66-130C289.69,228.38,138.77,259.2,138.77,259.2Z"/><path class="cls-4" d="M215.11,431.67h0a9.73,9.73,0,0,1-9.11-6.06L136.47,260.17a2.49,2.49,0,0,1,1.8-3.42c1.5-.31,150.34-31.22,187.48-85.34a2.5,2.5,0,0,1,4.37,2.38L224.22,425.61A9.73,9.73,0,0,1,215.11,431.67ZM142.25,261,210.6,423.68a4.76,4.76,0,0,0,4.51,3h0a4.76,4.76,0,0,0,4.5-3l99.73-237.17C274,230.42,163.29,256.55,142.25,261Z"/><path class="cls-10" d="M102.68,173.31l36.07,85.83s72.4-14.79,129.58-42.34C261.49,216.42,129.68,208.61,102.68,173.31Z"/><path class="cls-4" d="M138.75,261.64a2.49,2.49,0,0,1-2.3-1.53l-36.07-85.84a2.5,2.5,0,0,1,4.29-2.48C131,206.25,262.87,214,268.47,214.3a2.5,2.5,0,0,1,.94,4.75c-56.8,27.37-129.43,42.39-130.16,42.54A2.83,2.83,0,0,1,138.75,261.64Zm-29.16-78.36,30.66,73c11.38-2.47,68.93-15.54,118.19-37.63-13.52-1-39-3.39-65.8-8C152.8,203.74,125,194.57,109.59,183.28Z"/><path class="cls-11" d="M149.09,242.51l-12.36-30.18a2.1,2.1,0,0,1,2.74-2.75c21.53,8.89,60.84,13.79,78.31,15.62a2.11,2.11,0,0,1,.5,4.08c-21.86,8-49.91,14.61-61.6,17.2A6.63,6.63,0,0,1,149.09,242.51Z"/><path class="cls-4" d="M265.31,324a2.57,2.57,0,0,1-1.2-.3,25.07,25.07,0,0,1,19.34-46,2.5,2.5,0,0,1-1.47,4.78,20.06,20.06,0,0,0-15.48,36.81,2.5,2.5,0,0,1-1.19,4.7Z"/><path class="cls-4" d="M133.3,249a2.5,2.5,0,0,1,0-5,16.1,16.1,0,1,0-11.38-27.48,2.5,2.5,0,0,1-3.54-3.54,21.1,21.1,0,1,1,14.92,36Z"/><path class="cls-4" d="M255.93,265.22A15.05,15.05,0,1,1,271,250.17,15.07,15.07,0,0,1,255.93,265.22Zm0-25.1a10.05,10.05,0,1,0,10.05,10A10.06,10.06,0,0,0,255.93,240.12Z"/><path class="cls-4" d="M236,393.71a2.57,2.57,0,0,1-.67-.09,15.05,15.05,0,1,1,11.57-27.53,2.5,2.5,0,1,1-2.51,4.33,10,10,0,1,0-7.72,18.38,2.5,2.5,0,0,1-.67,4.91Z"/><path class="cls-4" d="M197.84,306.62a19.22,19.22,0,1,1,19.22-19.22A19.24,19.24,0,0,1,197.84,306.62Zm0-33.44a14.22,14.22,0,1,0,14.22,14.22A14.24,14.24,0,0,0,197.84,273.18Z"/><path class="cls-4" d="M188,375.13h-.64a2.5,2.5,0,0,1,.06-5h.06a20.7,20.7,0,1,0,1-41.39,20.83,20.83,0,0,0-15.72,6.66,2.5,2.5,0,0,1-3.67-3.39A25.7,25.7,0,1,1,188,375.13Z"/><path class="cls-9" d="M143.43,253.26a2.5,2.5,0,0,1-2.31-1.54l-23.28-56.28a2.5,2.5,0,0,1,3.93-2.85c.2.16,22.09,17.43,117.16,26.16a2.5,2.5,0,1,1-.45,5c-70.24-6.45-101.1-17.43-113.18-23.33l20.44,49.41a2.5,2.5,0,0,1-2.31,3.45Z"/><path class="cls-9" d="M215.28,422.07h0c-2.25,0-4.32-1.7-5.53-4.53L146.38,264.72a2.49,2.49,0,0,1,1.72-3.38l9.71-2.35h0C257,236.64,301.23,204,306,200.4a2.49,2.49,0,0,1,3.83,2.94l-89,214.08C219.12,421.27,216.88,422.07,215.28,422.07ZM152.12,265.51,214.34,415.6a3.77,3.77,0,0,0,.92,1.39,4.6,4.6,0,0,0,1-1.53l85.65-206.12c-16.66,10.89-61.65,36.2-142.9,54.51Z"/><path class="cls-11" d="M262.67,233.78c-35.33,16.9-61,24.07-79.81,28.34a6.51,6.51,0,0,0-4.84,8L212.6,403.85a2.5,2.5,0,0,0,4.81.08l49.21-166.79a2.83,2.83,0,0,0-3.94-3.36Z"/><ellipse class="cls-12" cx="215.17" cy="444.74" rx="113.8" ry="5.78"/></g></g></svg>