<svg id="Layer_1" data-name="Layer 1" xmlns="http://www.w3.org/2000/svg" viewBox="0 0 334 611.96"><defs><style>.cls-1{fill:#f39200;}.cls-2{fill:#d78100;}.cls-3{fill:#be7200;}.cls-4{fill:#1d1d1b;}.cls-5{fill:#d3a157;}.cls-6{fill:#b88643;}.cls-7{fill:#e0b070;}.cls-8{fill:#fff;opacity:0.58;}.cls-11,.cls-8{isolation:isolate;}.cls-9{fill:#f9b233;}.cls-10{fill:#e69928;}.cls-11{fill:#9d9d9c;opacity:0.33;}</style></defs><path class="cls-1" d="M199.81,42.11A44.63,44.63,0,0,0,136.53,36a44,44,0,0,0-6,6.06L8.27,191.74A20.85,20.85,0,0,0,5,213L82.78,399.74l72.74,175a10.45,10.45,0,0,0,13.68,5.82,10.58,10.58,0,0,0,5.76-5.82l72.63-175L325.35,213a20.92,20.92,0,0,0-3.08-21.2Z"/><path class="cls-2" d="M322.14,191.84l-95-116.17c-4.63,29.49-30.74,63.08-70.08,85.5-49.69,28.31-103.44,29.23-127,3.9L8.27,191.74A20.85,20.85,0,0,0,5,213L82.78,399.74l72.74,175a10.45,10.45,0,0,0,13.68,5.82,10.58,10.58,0,0,0,5.76-5.82l72.63-175L325.35,213A20.9,20.9,0,0,0,322.14,191.84Z"/><path class="cls-3" d="M322.14,191.84,267.23,124.5a252.6,252.6,0,0,1-68.2,57c-73.84,43.22-152.66,45.12-176,4.29a47.77,47.77,0,0,1-3.63-7.73L8.3,191.81A20.85,20.85,0,0,0,5.19,213L82.94,399.77,156.17,576a9.92,9.92,0,0,0,13.08,5.35,10.07,10.07,0,0,0,5.29-5.35l73.09-176.2L325.38,213A20.9,20.9,0,0,0,322.14,191.84Z"/><path class="cls-4" d="M165.24,584.89h0a13.77,13.77,0,0,1-13-8.69L1.88,214.39a24.45,24.45,0,0,1,3.63-24.87L127.78,39.85A48.24,48.24,0,0,1,196,33.3a53.46,53.46,0,0,1,6.48,6.55h0l122.33,149.7a24.51,24.51,0,0,1,3.63,24.9L178.2,576.2A13.85,13.85,0,0,1,165.24,584.89Zm0-555.65a40.88,40.88,0,0,0-31.88,15.2L11,194.1a17.19,17.19,0,0,0-2.56,17.5L158.76,573.45a6.75,6.75,0,0,0,6.48,4.33h0a6.81,6.81,0,0,0,6.48-4.33L322,211.67a17.2,17.2,0,0,0-2.56-17.53L197.05,44.41A41,41,0,0,0,165.24,29.24Z"/><path class="cls-5" d="M283.56,119l47.4,27.3c-112,146-111.84,245.78-113,253.84,0,0-.35,4.59-.39,4.69-.9,2.88-13.25,1.44-27.6-3.28S164.72,390.89,165.63,388C165.63,388.14,160.51,284.84,283.56,119Z"/><path class="cls-6" d="M190,401.67c-1.85-27.4,27.73-157.3,112.91-266.32L283.46,119C197.8,234.21,155.87,361.46,166.14,390.63Z"/><path class="cls-4" d="M212.31,409.14a89.85,89.85,0,0,1-23.2-4.72,109.24,109.24,0,0,1-18.46-7.63c-4-2.26-8.52-5.28-7.94-8.88,0-3.58-.36-29,13-73,13-42.6,41.83-111.68,105.62-197.67a2.79,2.79,0,0,1,3.82-.76l47.4,27.3a2.88,2.88,0,0,1,1.16,3.86l0,0-.26.39c-67,87.37-106.91,176-112.19,249.48a22.44,22.44,0,0,1-.26,3c-.07.62-.32,4.59-.52,5.18C219.5,408.22,216.39,409.14,212.31,409.14Zm-43.83-20.91c1.29,1.74,8.68,6.3,22.35,10.72,13,4.16,21.48,4.85,24.07,4.29a30.92,30.92,0,0,1,.26-3.27v-.2a14.73,14.73,0,0,1,.23-2.72c5.35-73.9,44.84-162.54,111.29-250L284.33,122.6C222.19,206.79,194,274.19,181.44,316c-13.87,45.68-13,71.57-13,71.83Z"/><path class="cls-4" d="M199.58,404.91h-.16a2.85,2.85,0,0,1-2.69-3h0c0-.33,1.75-33.3,16.55-81.93a536.73,536.73,0,0,1,97-180.23,2.84,2.84,0,0,1,4-.31,2.91,2.91,0,0,1,.45,3.88h0a530.28,530.28,0,0,0-96,178.14c-14.68,47.91-16.39,80.32-16.39,80.65A2.86,2.86,0,0,1,199.58,404.91Z"/><path class="cls-4" d="M180.4,401.05h0a2.9,2.9,0,0,1-2.69-3c0-.33,1.81-33,16.82-82.25A589.69,589.69,0,0,1,292.14,129a2.85,2.85,0,0,1,4.66,3.27l-.06.07v.2C191.22,269.41,183.57,397.08,183.51,398.36a2.86,2.86,0,0,1-3,2.69Z"/><path class="cls-7" d="M283.56,119c-1.43,2.63,8,10.85,21.06,18.36s24.88,11.5,26.34,8.91-7.94-10.85-21-18.48S285.11,116.37,283.56,119Z"/><path class="cls-4" d="M328.62,149.83c-7.09,0-19.44-6.55-25.43-9.83-7.87-4.52-25.92-15.83-22.1-22.28h0c3.66-6.56,22.36,3.27,30.23,7.79s25.92,15.8,22.1,22.29A5,5,0,0,1,328.62,149.83Zm-41.18-28.61A79.51,79.51,0,0,0,306,134.85a77.1,77.1,0,0,0,21,9.31,79.52,79.52,0,0,0-18.53-13.6,79.33,79.33,0,0,0-21-9.34Z"/><path class="cls-8" d="M209,399.11h0a2.14,2.14,0,0,1-2-2.22h0c0-.27,1.29-29.5,15.06-74.46,12.7-41.35,38.88-104.86,91.76-172.24a2.11,2.11,0,0,1,3,.32,2.18,2.18,0,0,1,.24,2.37C216.62,280.94,211.18,395.94,211.15,397.08A2.19,2.19,0,0,1,209,399.11Z"/><path class="cls-5" d="M112.78,28.81,59.84,41.92C128.46,213.21,107.57,377.85,106.5,386a.58.58,0,0,0,0,.32c0,3,12.37,5.05,27.41,4.56s27.18-3.28,27.08-6.33C160.93,384.53,186.72,222.19,112.78,28.81Z"/><path class="cls-6" d="M90.46,40c65.48,169.75,43.42,350.91,43.42,350.91l27.05-6.33c26.18-189.61-48.15-355.72-48.15-355.72Z"/><path class="cls-4" d="M129.05,393.8c-10.11,0-25.24-1-25.44-7.4a3.78,3.78,0,0,1,0-.95C104.85,376.83,125.19,213,57.22,43.1a2.93,2.93,0,0,1,0-2.39,2.74,2.74,0,0,1,1.85-1.45l53-13.07a2.81,2.81,0,0,1,3.24,1.74,811.53,811.53,0,0,1,51.84,251.31c2.66,62-3.24,102.57-3.66,105.75-.42,7.18-20.93,8.62-29.84,8.91Zm-19.64-8.25c2.27,1.21,10.63,2.88,24.37,2.45,14.29-.45,22.68-2.88,24.39-4.16.52-3.54,6.22-43.52,3.57-104.7A805.19,805.19,0,0,0,111,32.19L63.67,44C129.6,210.91,111.2,371.32,109.41,385.55Z"/><path class="cls-4" d="M124.54,391.45h-.32a2.88,2.88,0,0,1-2.5-3.2.22.22,0,0,1,0-.08c.22-1.9,21-191.74-45.36-344.55a2.89,2.89,0,0,1,1.54-3.77,2.84,2.84,0,0,1,3.61,1.31h0c35.12,80.88,45.65,171.1,48.37,232.48a810.25,810.25,0,0,1-2.53,115.22A2.83,2.83,0,0,1,124.54,391.45Z"/><path class="cls-4" d="M144.05,393h-.33a2.87,2.87,0,0,1-2.5-3.2s0-.05,0-.08c.19-1.9,20.41-190.75-44.45-351.59a2.85,2.85,0,0,1,2.11-3.42,2.8,2.8,0,0,1,3,1.29v.23c34.15,84.58,44.68,176.53,47.33,238.57a843.8,843.8,0,0,1-2.39,115.64A2.94,2.94,0,0,1,144.05,393Z"/><ellipse class="cls-7" cx="86.3" cy="35.44" rx="27.27" ry="5.44" transform="translate(-6.02 21.97) rotate(-14.03)"/><path class="cls-4" d="M67,46.77c-5.08,0-9.1-1.05-9.72-4.07C55.47,35.43,75.72,29.6,84.5,27.34s29.42-6.56,31.26.78h0c1.79,7.28-18.46,13.11-27.24,15.37A100.74,100.74,0,0,1,67,46.77Zm-2.75-5.84a79.12,79.12,0,0,0,22.68-3,78.19,78.19,0,0,0,21.48-8,77.3,77.3,0,0,0-22.68,3A77.68,77.68,0,0,0,64.22,40.93Z"/><path class="cls-8" d="M115.31,383.38H115a2.16,2.16,0,0,1-1.82-2.44h0c.23-1.54,21.91-157.1-43.15-329.12A2.18,2.18,0,0,1,71.3,49a2.15,2.15,0,0,1,2.77,1.26h0a755,755,0,0,1,46.52,231.1c2.53,60.26-3.08,99.65-3.24,100.05A2.13,2.13,0,0,1,115.31,383.38Z"/><path class="cls-5" d="M165.24,5.87l54.1,6.88C170.91,191,210.59,352,212.54,359.82a1.82,1.82,0,0,1,0,.33c.26,3-11.7,6.55-26.7,7.73s-27.34,0-27.6-3.08C158.3,364.84,114.08,206.62,165.24,5.87Z"/><path class="cls-6" d="M188.82,14.29C143.21,190.5,185.91,368,185.91,368l-27.61-3.28c-47.72-185,7.1-358.8,7.1-358.8Z"/><path class="cls-4" d="M175.22,371.32a81,81,0,0,1-8.95-.45c-4.73-.53-10.14-1.64-10.75-5.44-.88-3.28-11.37-42.61-15.75-104.57A812,812,0,0,1,162.45,5.25a2.87,2.87,0,0,1,3.24-2.13L219.8,9.8a2.88,2.88,0,0,1,2.43,3.26v0a2.16,2.16,0,0,1,0,.36c-48.12,176.6-9.14,337.17-7,345.6a4.72,4.72,0,0,1,.19,1c.33,4.06-5,6.13-9.72,7.47a105.22,105.22,0,0,1-19.63,3.28C182.34,371.13,178.65,371.32,175.22,371.32ZM161,363.72c1.95,1.08,10.47,2.49,24.72,1.25,13.71-1.15,21.81-3.8,23.91-5.25-3.4-13.76-40-171,6.26-344.48L167.57,9.05a806.57,806.57,0,0,0-22,251.22c4.28,61.05,14.51,100.17,15.42,103.45Z"/><path class="cls-4" d="M194.88,367.46a2.89,2.89,0,0,1-2.75-2.2,819.91,819.91,0,0,1-15.72-114.14C172,189.74,172.27,98.94,197.83,14.69a2.81,2.81,0,0,1,3.51-1.92l0,0a2.89,2.89,0,0,1,1.92,3.57c-48.47,159.65-6,345.72-5.67,347.56a2.89,2.89,0,0,1-2.11,3.47A2.81,2.81,0,0,1,194.88,367.46Z"/><path class="cls-4" d="M175.73,371.32a2.81,2.81,0,0,1-2.85-2.19,834.12,834.12,0,0,1-15.61-114.7c-4.47-62-4.7-154.44,19.44-242.69A2.84,2.84,0,0,1,180,9.45a2.89,2.89,0,0,1,2.27,3.37,3.47,3.47,0,0,1-.13.46h0c-45.88,167.52-4,352.67-3.72,354.54a2.9,2.9,0,0,1-2.14,3.28h0Z"/><path class="cls-7" d="M165.24,5.87c-.36,3,11.37,6.92,26.37,8.85s27.34,1,27.73-2S208,5.84,193.07,3.9,165.72,2.86,165.24,5.87Z"/><path class="cls-4" d="M206.54,18.65a130.83,130.83,0,0,1-15.19-1.08c-9-1.21-29.81-4.49-28.83-12.06h0C163.45-2,184.45,0,193.42,1.05s29.81,4.62,28.84,12C221.77,17.47,214.35,18.65,206.54,18.65ZM169.8,6.53A78.23,78.23,0,0,0,192.06,12a80,80,0,0,0,22.91.33,78.19,78.19,0,0,0-22.26-5.44A77.85,77.85,0,0,0,169.8,6.53Z"/><path class="cls-8" d="M203.21,358.18a2.1,2.1,0,0,1-2-1.57,594.71,594.71,0,0,1-14.61-99A755,755,0,0,1,206.29,22.45a2.19,2.19,0,1,1,4.3.79h0a.71.71,0,0,1,0,.29c-45.09,178.5-5.73,330.36-5.34,332a2.1,2.1,0,0,1-1.41,2.6l-.08,0h0A1,1,0,0,1,203.21,358.18Z"/><path class="cls-5" d="M46.76,88.71,3.24,113.59c119.43,201.8,131,331.6,135.14,379.25.32,2.88,11.69,4.06,25.46,2.55s24.66-5,24.33-7.93C182.8,447.32,173.56,303.52,46.76,88.71Z"/><path class="cls-6" d="M27.51,105.75C137.18,302.15,158.92,432.87,162,495.52L187.92,489C178.46,298.51,46.76,88.71,46.76,88.71l-3.44,5.12Z"/><path class="cls-4" d="M152.05,498.9c-7.94,0-16-1.15-16.49-5.8-4.28-48.3-15.49-176.44-134.94-378a2.91,2.91,0,0,1,1-3.93h0L45.36,86.22a2.84,2.84,0,0,1,3.83,1C167.08,286.94,183.54,424.81,189.73,476.71c.45,4,.87,7.41,1.26,10.29.46,4.1-4.82,6.33-8.84,7.64a93.23,93.23,0,0,1-18.05,3.44A112.89,112.89,0,0,1,152.05,498.9Zm-10.89-7.18c2,1,9.72,2.07,22.36.72s20-4.09,21.74-5.47c-.36-2.72-.75-5.93-1.17-9.6C178,426,161.77,290,45.75,92.65L7,114.67C125.19,314.86,136.86,442.8,141.16,491.76Z"/><path class="cls-4" d="M152,498.87h0a2.87,2.87,0,0,1-2.78-2.89c0-.39.77-39.91-15.1-106.73C119.33,327.67,87.12,229.36,16.62,111.69a2.91,2.91,0,0,1,1.27-3.88,2.83,2.83,0,0,1,3.59.89c70.89,118.44,103.36,217.37,118.1,279.5,16,67.51,15.19,107.52,15.19,108A2.87,2.87,0,0,1,152,498.87Z"/><path class="cls-4" d="M171.42,497.13h0a2.84,2.84,0,0,1-2.85-2.82v0c0-.43.23-41.16-16.2-109.19C137.15,322.27,104.3,222.81,33.83,104.84a2.93,2.93,0,0,1,.84-4,2.8,2.8,0,0,1,3.9.82l0,0v.16c70.89,118.44,104,218.68,119.29,281.83C174.47,452.5,174.24,493.59,174.24,494a2.86,2.86,0,0,1-2.88,2.85h0Z"/><path class="cls-7" d="M46.76,88.71c1.42,2.56-7.23,10.2-19.25,17s-23,10.39-24.27,7.84,7.23-10.16,19.25-17S45.36,86.19,46.76,88.71Z"/><path class="cls-4" d="M5.51,117.26A5.07,5.07,0,0,1,.65,115c-2-3.54,2-7.67,5.19-10.46A89,89,0,0,1,21,94.09c7.29-4.2,24.65-13.11,28.22-6.75,2,3.54-2,7.67-5.19,10.48A93.49,93.49,0,0,1,28.9,108.28C23.4,111.39,12.25,117.26,5.51,117.26ZM42.9,91a68.72,68.72,0,0,0-19.15,8.13A70.91,70.91,0,0,0,7,111.39a69.45,69.45,0,0,0,19.15-8.13A70.83,70.83,0,0,0,42.9,90.94Z"/><path class="cls-8" d="M145.08,490.58a2.18,2.18,0,0,1-2.13-2c0-.42-3.24-43.68-20.67-110.4a1002.13,1002.13,0,0,0-109-257.77,2.13,2.13,0,0,1,.68-2.93l0,0a2.13,2.13,0,0,1,2.94.71h0A1006.77,1006.77,0,0,1,126.36,377.22C144,444.3,147.09,487.86,147.13,488.31a2.14,2.14,0,0,1-1.94,2.3H145Z"/><path class="cls-5" d="M255,36.22,298.69,54.9C207.78,257.64,210.82,381,212,426c0,2.75-10.56,5-23.62,5.17s-23.75-2.06-23.75-4.81C165.24,388.17,158.76,252,255,36.22Z"/><path class="cls-6" d="M274.91,50.14c-82.13,196.59-88.65,321.77-84.69,381.06l-24.95-3.28C153.61,247.85,255,36.28,255,36.28l3.76,4.43Z"/><path class="cls-4" d="M187.43,434.11A86.24,86.24,0,0,1,171,432.67c-3.95-.82-9.23-2.33-9.26-6.29v-9.83c.29-49.45,1-180.83,90.71-381.48a2.77,2.77,0,0,1,3.67-1.45h0l43.64,18.58a2.86,2.86,0,0,1,1.55,1.7,3,3,0,0,1,0,2.23c-90.75,202.36-87.7,324-86.53,369.85,0,7.17-18.47,8.06-26.47,8.12Zm-20-8.45c1.91,1.08,9.1,2.78,20.86,2.68s18.93-1.9,20.8-3c-1.16-46.47-3.75-168,85.73-369L256.41,39.92c-87.93,198.16-88.61,327.73-88.87,376.66C167.5,420,167.47,423,167.44,425.66Z"/><path class="cls-4" d="M197.64,431.65a2.87,2.87,0,0,1-2.86-2.62c0-.36-3.24-39.71,5.58-105.58,8.13-60.69,28.38-157.1,79.15-271.77a2.76,2.76,0,0,1,3.7-1.35l.09,0A2.91,2.91,0,0,1,284.69,54C234.15,168.08,213.83,263.9,205.83,324.4c-8.71,65.24-5.54,103.91-5.51,104.31a2.86,2.86,0,0,1-2.59,3.11h-.09Z"/><path class="cls-4" d="M181.08,433.92a2.9,2.9,0,0,1-2.85-2.53c0-.39-4.7-39.32,3.56-105.55,7.62-61.15,28-159,82-278.09a2.81,2.81,0,0,1,3.75-1.41,2.88,2.88,0,0,1,1.4,3.8h0c-53.72,118.4-74,215.66-81.55,276.42-8.16,65.54-3.63,103.75-3.56,104.11a2.89,2.89,0,0,1-2.41,3.27h-.06Z"/><path class="cls-7" d="M255,36.22c-1.07,2.55,7.84,8.78,19.86,13.92s22.68,7.18,23.78,4.69-7.87-8.78-20-13.93S256,33.73,255,36.22Z"/><path class="cls-4" d="M295.48,58.76a26.39,26.39,0,0,1-5.09-.59,87.4,87.4,0,0,1-16.59-5.4,89.45,89.45,0,0,1-15.39-8.2c-3.24-2.32-7.54-5.83-6-9.47h0c1.49-3.64,7-3,10.92-2.23a100.21,100.21,0,0,1,31.94,13.6c3.24,2.33,7.55,5.84,6,9.47C300.37,58.17,298.07,58.76,295.48,58.76ZM259.19,38.05a70.2,70.2,0,0,0,16.72,9.44A67.94,67.94,0,0,0,294.28,53a69,69,0,0,0-16.62-9.43A69.47,69.47,0,0,0,259.19,38.05Z"/><path class="cls-8" d="M204.73,423a2.16,2.16,0,0,1-2.14-2c0-.4-2.62-40.83,6.48-105.16a898.05,898.05,0,0,1,77-255.35,2.14,2.14,0,0,1,2.89-1,2.19,2.19,0,0,1,1,2.92,889.21,889.21,0,0,0-76.69,254c-8.94,63.9-6.48,103.88-6.32,104.27a2.18,2.18,0,0,1-2,2.33Z"/><path class="cls-9" d="M56.7,337.15l25.92,62.62,72.9,175a10.43,10.43,0,0,0,13.6,5.9,10.55,10.55,0,0,0,5.84-5.9l72.57-175L325.29,213C271,292.87,56.7,337.15,56.7,337.15Z"/><path class="cls-4" d="M165.24,584.89h0a13.77,13.77,0,0,1-13-8.69L53.43,338.52a3.58,3.58,0,0,1,1.85-4.68l.71-.23c2.11-.43,213.51-44.83,266.25-122.6a3.54,3.54,0,0,1,5-.64,3.64,3.64,0,0,1,1.22,3.92L178.2,576.2A13.79,13.79,0,0,1,165.24,584.89ZM61.56,339.73l97.2,233.72a6.8,6.8,0,0,0,6.48,4.33h0a6.76,6.76,0,0,0,6.48-4.33L313.14,232.64C248.76,295.79,91.5,333.34,61.56,339.73Z"/><path class="cls-9" d="M5.42,213.77,56.67,337.05s102.8-21.24,184-60.82C231,275.67,43.77,264.46,5.42,213.77Z"/><path class="cls-4" d="M56.67,340.78a3.59,3.59,0,0,1-3.24-2.19L2.18,215.14a3.62,3.62,0,0,1,2-4.66,3.56,3.56,0,0,1,4.06,1.09C45.65,261.09,233,272.19,240.89,272.62a3.62,3.62,0,0,1,1.33,6.85c-80.68,39.32-183.8,60.89-184.68,61.12ZM15.23,228.09,58.78,333c16.19-3.57,97.9-22.32,167.88-54.07-19.21-1.44-55.4-4.85-93.47-11.5-56.56-9.83-96.06-22.94-118-39.33Z"/><path class="cls-10" d="M71.28,313.16,53.79,269.8a3,3,0,0,1,1.62-3.93,2.7,2.7,0,0,1,2.26,0c30.59,12.75,86.41,19.66,111.23,22.41a3,3,0,0,1,2.83,3.16c0,.06,0,.13,0,.19a3,3,0,0,1-1.95,2.52A757.49,757.49,0,0,1,82.3,318.86,9.37,9.37,0,0,1,71.28,313.16Z"/><path class="cls-8" d="M63.31,328.59a3.54,3.54,0,0,1-3.24-2.19L27,245.55A3.57,3.57,0,0,1,29,241a3.49,3.49,0,0,1,3.37.5c.29.23,31.4,25,166.4,37.58a3.61,3.61,0,0,1-.61,7.18h0C98.4,277,54.6,261.18,37.42,252.7l29.16,71a3.61,3.61,0,0,1-1.94,4.68,3.54,3.54,0,0,1-1.33.26Z"/><path class="cls-8" d="M165.24,571.09h0a9.2,9.2,0,0,1-7.88-6.55L67.36,345a3.59,3.59,0,0,1,1.89-4.68h.57L83.59,337h0c140.87-32.11,203.69-79,210.59-84.18a3.56,3.56,0,0,1,5,.59,3.6,3.6,0,0,1,.46,3.63L173.27,564.6C170.81,569.94,167.63,571.09,165.24,571.09ZM75.65,346.19,164,561.82a5.59,5.59,0,0,0,1.32,2,6,6,0,0,0,1.4-2.2L288.35,265.41c-23.65,15.63-87.47,52-202.94,78.32Z"/><path class="cls-10" d="M232.66,300.61a513.73,513.73,0,0,1-113.4,40.73,9.38,9.38,0,0,0-6.93,11.21v.26l49.21,192.13a3.54,3.54,0,0,0,6.84.1l69.88-239.58a4.1,4.1,0,0,0-2.69-5.08A4,4,0,0,0,232.66,300.61Z"/><ellipse class="cls-11" cx="165.2" cy="603.67" rx="161.64" ry="8.29"/></svg>