<svg width="343" height="282" viewBox="0 0 343 282" fill="none" xmlns="http://www.w3.org/2000/svg">
<g clip-path="url(#clip0_316_1763)">
<path d="M184.005 259.732C183.768 261.124 183.111 262.411 182.121 263.42C180.144 265.391 177.179 265.803 176.914 265.299C176.649 264.794 178.866 263.878 180.644 260.806C181.117 259.994 181.502 259.134 181.793 258.24C182.634 255.582 182.154 253.878 182.489 253.816C182.929 253.731 184.567 256.629 184.005 259.732Z" fill="#DEC1B6"/>
<path opacity="0.3" d="M329.434 82.1406C329.092 81.7808 328.887 81.5954 328.887 81.5954C328.887 81.5954 217.688 4.63474 173.679 8.19528C129.669 11.7558 7.01953 129.464 7.01953 129.464C2.95414 132.91 1.66817 136.279 1.53712 139.006C0.511417 142.689 -0.00574526 146.494 -2.95179e-05 150.317C-0.0655564 164.521 6.91032 174.854 6.91032 174.854C19.9939 190.691 161.548 275.026 176.617 280.569C179.403 281.627 182.376 282.107 185.354 281.978C185.354 281.907 185.367 281.836 185.375 281.763C195.273 281.258 201.192 273.625 201.192 273.625C201.192 273.625 323.148 149.578 332.437 136.631C352.914 108.106 333.095 85.8429 329.434 82.1406Z" fill="#2D2010"/>
<path d="M4.66072 124.982C4.66072 124.982 130.644 3.68329 174.654 0.120018C218.663 -3.44325 329.851 73.5201 329.851 73.5201C329.851 73.5201 355.866 97.2771 333.42 128.553C324.131 141.495 202.175 265.541 202.175 265.541C202.175 265.541 192.66 277.81 177.602 272.273C162.545 266.736 20.9714 182.389 7.88792 166.577C7.88792 166.577 -5.22291 147.163 4.66072 124.982Z" fill="#CEAB76"/>
<path d="M7.99432 121.388C7.99432 121.388 130.644 3.68329 174.654 0.120018C218.663 -3.44325 329.851 73.5201 329.851 73.5201C329.851 73.5201 341.747 83.8146 329.851 99.2564C320.126 111.879 198.606 236.247 198.606 236.247C198.606 236.247 189.091 248.516 174.034 242.979C158.976 237.441 17.4029 153.101 4.31662 137.264C4.31662 137.264 -1.63813 129.546 7.99432 121.388Z" fill="#FEDFB3"/>
<path d="M159.995 215.282C158.572 214.407 152.511 211.25 158.097 204.407C162.348 199.205 174.329 187.776 174.329 187.776C174.329 187.776 179.967 184.093 185.711 187.776C190.298 190.721 206.462 198.867 206.462 198.867C206.462 198.867 212.075 200.467 203.21 210.931C196.253 219.14 192.038 223.139 192.038 223.139C192.038 223.139 186.558 228.821 176.439 224.401C166.321 219.982 159.995 215.282 159.995 215.282Z" fill="#CEAB76"/>
<path d="M158.69 214.448C163.353 208.995 174.337 198.515 174.337 198.515C174.337 198.515 179.975 194.832 185.719 198.515C189.435 200.898 200.736 206.694 204.905 208.812C211.294 200.252 206.467 198.87 206.467 198.87C206.467 198.87 190.306 190.723 185.717 187.779C179.983 184.096 174.334 187.779 174.334 187.779C174.334 187.779 162.354 199.205 158.103 204.409C153.66 209.854 156.59 212.962 158.69 214.448Z" fill="#DFC7A3"/>
<path d="M112.788 187.427C111.478 186.593 105.889 183.572 111.18 177.291C115.205 172.515 126.502 162.065 126.502 162.065C126.502 162.065 131.796 158.72 137.082 162.226C141.306 165.025 156.211 172.825 156.211 172.825C156.211 172.825 161.398 174.393 153.019 184.003C146.436 191.536 142.461 195.181 142.461 195.181C142.461 195.181 137.287 200.388 127.944 196.135C118.601 191.882 112.788 187.427 112.788 187.427Z" fill="#CEAB76"/>
<path d="M111.581 186.631C115.993 181.623 126.352 172.043 126.352 172.043C126.352 172.043 131.646 168.698 136.935 172.204C140.356 174.472 150.785 180.02 154.621 182.046C160.683 174.18 156.216 172.825 156.216 172.825C156.216 172.825 141.308 165.025 137.085 162.226C131.799 158.72 126.505 162.065 126.505 162.065C126.505 162.065 115.218 172.515 111.18 177.291C106.972 182.291 109.651 185.222 111.581 186.631Z" fill="#DFC7A3"/>
<path d="M69.6221 159.696C68.3798 158.878 63.0694 155.879 68.257 149.927C72.2077 145.407 83.249 135.568 83.249 135.568C83.249 135.568 88.3928 132.446 93.4111 135.909C97.4219 138.673 111.606 146.429 111.606 146.429C111.606 146.429 116.569 148.03 108.329 157.106C101.867 164.227 97.9816 167.667 97.9816 167.667C97.9816 167.667 92.9197 172.575 84.0162 168.327C75.1127 164.079 69.6221 159.696 69.6221 159.696Z" fill="#CEAB76"/>
<path d="M68.4645 158.91C72.792 154.175 82.9159 145.151 82.9159 145.151C82.9159 145.151 88.0597 142.032 93.078 145.491C96.3243 147.733 106.249 153.248 109.899 155.263C115.862 147.812 111.592 146.429 111.592 146.429C111.592 146.429 97.3946 138.673 93.4002 135.909C88.3819 132.446 83.238 135.568 83.238 135.568C83.238 135.568 72.1968 145.407 68.257 149.927C64.1124 154.657 66.6352 157.52 68.4645 158.91Z" fill="#DFC7A3"/>
<path d="M25.8614 134.575C24.6683 133.757 19.5572 130.759 24.6792 125.085C28.5753 120.761 39.4227 111.38 39.4227 111.38C39.4227 111.38 44.4546 108.43 49.2709 111.857C53.1151 114.583 66.7447 122.321 66.7447 122.321C66.7447 122.321 71.5363 123.94 63.4247 132.621C57.0631 139.436 53.2462 142.708 53.2462 142.708C53.2462 142.708 48.2661 147.394 39.6985 143.147C31.1308 138.899 25.8614 134.575 25.8614 134.575Z" fill="#CEAB76"/>
<path d="M24.7636 133.796C29.0256 129.27 38.9611 120.666 38.9611 120.666C38.9611 120.666 43.993 117.716 48.8065 121.143C51.9245 123.362 61.4641 128.853 64.9752 130.857C70.859 123.719 66.7417 122.321 66.7417 122.321C66.7417 122.321 53.0903 114.594 49.2679 111.857C44.4517 108.43 39.4198 111.38 39.4198 111.38C39.4198 111.38 28.5723 120.761 24.6762 125.085C20.6054 129.611 23.0108 132.422 24.7636 133.796Z" fill="#DFC7A3"/>
<path d="M202.473 174.707C201.05 173.829 194.989 170.672 200.561 163.831C204.812 158.627 216.793 147.201 216.793 147.201C216.793 147.201 222.431 143.518 228.176 147.201C232.762 150.143 248.926 158.289 248.926 158.289C248.926 158.289 254.539 159.892 245.674 170.355C238.717 178.564 234.502 182.564 234.502 182.564C234.502 182.564 229.022 188.245 218.903 183.826C208.785 179.407 202.473 174.707 202.473 174.707Z" fill="#CEAB76"/>
<path d="M201.162 173.872C205.823 168.42 216.809 157.94 216.809 157.94C216.809 157.94 222.447 154.254 228.192 157.94C231.908 160.323 243.209 166.119 247.378 168.237C253.764 159.676 248.939 158.291 248.939 158.291C248.939 158.291 232.779 150.145 228.189 147.204C222.456 143.52 216.807 147.204 216.807 147.204C216.807 147.204 204.826 158.627 200.575 163.834C196.133 169.276 199.063 172.386 201.162 173.872Z" fill="#DFC7A3"/>
<path d="M155.26 146.852C153.95 146.015 148.361 142.997 153.649 136.716C157.674 131.936 168.975 121.487 168.975 121.487C168.975 121.487 174.269 118.144 179.554 121.647C183.778 124.447 198.683 132.25 198.683 132.25C198.683 132.25 203.87 133.818 195.491 143.428C188.908 150.963 184.933 154.619 184.933 154.619C184.933 154.619 179.745 159.824 170.413 155.573C161.081 151.323 155.26 146.852 155.26 146.852Z" fill="#CEAB76"/>
<path d="M154.053 146.056C158.463 141.048 168.824 131.465 168.824 131.465C168.824 131.465 174.118 128.122 179.404 131.626C182.828 133.894 193.258 139.445 197.094 141.47C203.152 133.605 198.685 132.25 198.685 132.25C198.685 132.25 183.781 124.447 179.557 121.647C174.271 118.144 168.977 121.487 168.977 121.487C168.977 121.487 157.677 131.936 153.652 136.716C149.442 141.713 152.123 144.646 154.053 146.056Z" fill="#DFC7A3"/>
<path d="M112.013 119.275C110.79 118.458 105.561 115.513 110.669 109.671C114.555 105.227 125.413 95.5485 125.413 95.5485C125.413 95.5485 130.472 92.4787 135.409 95.8838C139.351 98.6101 153.3 106.23 153.3 106.23C153.3 106.23 158.185 107.803 150.089 116.729C143.739 123.733 139.919 127.122 139.919 127.122C139.919 127.122 134.936 131.95 126.183 127.771C117.43 123.591 112.013 119.275 112.013 119.275Z" fill="#CEAB76"/>
<path d="M110.888 118.504C115.142 113.848 125.099 104.963 125.099 104.963C125.099 104.963 130.158 101.895 135.095 105.298C138.286 107.501 148.047 112.932 151.637 114.905C157.499 107.58 153.303 106.219 153.303 106.219C153.303 106.219 139.354 98.5858 135.411 95.8731C130.478 92.4679 125.416 95.5378 125.416 95.5378C125.416 95.5378 114.557 105.216 110.672 109.66C106.607 114.322 109.089 117.138 110.888 118.504Z" fill="#DFC7A3"/>
<path d="M67.9841 94.7851C66.892 94.0381 62.2204 91.3091 66.892 86.1127C70.4413 82.1569 80.3659 73.5718 80.3659 73.5718C80.3659 73.5718 84.9664 70.8727 89.3759 74.008C92.8925 76.5107 105.359 83.5718 105.359 83.5718C105.359 83.5718 109.727 85.0549 102.326 92.9885C96.5074 99.2371 93.0208 102.236 93.0208 102.236C93.0208 102.236 88.4667 106.522 80.6362 102.637C72.8058 98.7518 67.9841 94.7851 67.9841 94.7851Z" fill="#CEAB76"/>
<path d="M66.9766 94.0735C70.8727 89.935 79.9645 82.0778 79.9645 82.0778C79.9645 82.0778 84.5651 79.3815 88.9745 82.514C91.8222 84.5424 100.545 89.5588 103.754 91.3936C109.135 84.8696 105.37 83.5882 105.37 83.5882C105.37 83.5882 92.9034 76.5271 89.3868 74.0243C84.9855 70.8918 80.3768 73.5881 80.3768 73.5881C80.3768 73.5881 70.4631 82.1623 66.9001 86.1291C63.176 90.2404 65.3739 92.8194 66.9766 94.0735Z" fill="#DFC7A3"/>
<path d="M242.921 140.361C241.499 139.483 235.44 136.326 241.027 129.485C245.275 124.281 257.255 112.855 257.255 112.855C257.255 112.855 262.896 109.172 268.638 112.855C273.228 115.797 289.388 123.943 289.388 123.943C289.388 123.943 295.004 125.543 286.139 136.007C279.182 144.216 274.967 148.215 274.967 148.215C274.967 148.215 269.479 153.902 259.377 149.48C249.275 145.058 242.921 140.361 242.921 140.361Z" fill="#CEAB76"/>
<path d="M241.611 139.524C246.274 134.071 257.261 123.591 257.261 123.591C257.261 123.591 262.899 119.908 268.644 123.591C272.36 125.974 283.66 131.77 287.829 133.888C294.216 125.331 289.388 123.946 289.388 123.946C289.388 123.946 273.231 115.799 268.638 112.858C262.905 109.174 257.256 112.858 257.256 112.858C257.256 112.858 245.272 124.281 241.024 129.488C236.582 134.93 239.514 138.038 241.611 139.524Z" fill="#DFC7A3"/>
<path d="M195.71 112.503C194.402 111.669 188.813 108.648 194.102 102.37C198.126 97.6014 209.413 87.1406 209.413 87.1406C209.413 87.1406 214.707 83.7955 219.996 87.3015C224.219 90.1014 239.124 97.9013 239.124 97.9013C239.124 97.9013 244.312 99.469 235.932 109.079C229.35 116.612 225.374 120.271 225.374 120.271C225.374 120.271 220.187 125.475 210.855 121.222C201.523 116.969 195.71 112.503 195.71 112.503Z" fill="#CEAB76"/>
<path d="M194.506 111.71C198.915 106.699 209.276 97.1189 209.276 97.1189C209.276 97.1189 214.571 93.7737 219.856 97.2797C223.277 99.548 233.707 105.096 237.546 107.122C243.604 99.2563 239.138 97.9013 239.138 97.9013C239.138 97.9013 224.233 90.1014 220.009 87.3015C214.721 83.7955 209.427 87.1406 209.427 87.1406C209.427 87.1406 198.129 97.6014 194.104 102.37C189.894 107.367 192.575 110.298 194.506 111.71Z" fill="#DFC7A3"/>
<path d="M152.38 85.1232C151.184 84.3298 146.062 81.4399 151.064 75.7174C154.87 71.3554 165.502 61.8896 165.502 61.8896C165.502 61.8896 170.457 58.8907 175.29 62.2168C179.15 64.8804 192.807 72.3504 192.807 72.3504C192.807 72.3504 197.591 73.8908 189.665 82.6313C183.445 89.4879 179.705 92.8059 179.705 92.8059C179.705 92.8059 174.828 97.5332 166.255 93.4411C157.682 89.3489 152.38 85.1232 152.38 85.1232Z" fill="#CEAB76"/>
<path d="M151.277 84.3679C155.446 79.8096 165.202 71.1181 165.202 71.1181C165.202 71.1181 170.157 68.1192 174.99 71.448C178.116 73.6045 187.672 78.9153 191.188 80.8537C196.922 73.6809 192.827 72.3504 192.827 72.3504C192.827 72.3504 179.175 64.8804 175.309 62.2168C170.476 58.8852 165.521 61.8896 165.521 61.8896C165.521 61.8896 154.889 71.3662 151.083 75.7174C147.086 80.273 149.516 83.0293 151.277 84.3679Z" fill="#DFC7A3"/>
<path d="M108.463 60.371C107.371 59.6186 102.653 56.8677 107.371 51.6305C110.961 47.6447 120.951 39.0023 120.951 39.0023C120.951 39.0023 125.593 36.276 130.024 39.4412C133.574 41.963 146.133 49.0814 146.133 49.0814C146.133 49.0814 150.548 50.5754 143.075 58.5717C137.213 64.8421 133.696 67.8738 133.696 67.8738C133.696 67.8738 129.11 72.1922 121.225 68.2773C113.339 64.3623 108.463 60.371 108.463 60.371Z" fill="#CEAB76"/>
<path d="M107.45 59.654C111.376 55.4828 120.539 47.5575 120.539 47.5575C120.539 47.5575 125.181 44.8312 129.615 47.9964C132.484 50.0411 141.273 55.0848 144.508 56.9468C149.931 50.371 146.147 49.0815 146.147 49.0815C146.147 49.0815 133.587 41.9631 130.038 39.4413C125.593 36.2842 120.951 39.0023 120.951 39.0023C120.951 39.0023 110.956 47.6447 107.368 51.6306C103.62 55.7991 105.834 58.389 107.45 59.654Z" fill="#DFC7A3"/>
<path d="M276.169 99.7825C274.746 98.9074 268.688 95.7503 274.274 88.9073C278.522 83.7028 290.503 72.2769 290.503 72.2769C290.503 72.2769 296.141 68.5937 301.885 72.2769C306.475 75.2213 322.635 83.3675 322.635 83.3675C322.635 83.3675 328.251 84.9678 319.384 95.4313C312.429 103.64 308.211 107.64 308.211 107.64C308.211 107.64 302.731 113.321 292.613 108.902C282.495 104.483 276.169 99.7825 276.169 99.7825Z" fill="#CEAB76"/>
<path d="M274.858 98.9482C279.521 93.4956 290.505 83.0157 290.505 83.0157C290.505 83.0157 296.146 79.3325 301.888 83.0157C305.606 85.3985 316.904 91.1946 321.073 93.313C327.462 84.7524 322.635 83.3701 322.635 83.3701C322.635 83.3701 306.477 75.224 301.885 72.2796C296.151 68.5963 290.502 72.2796 290.502 72.2796C290.502 72.2796 278.522 83.7028 274.271 88.91C269.829 94.3544 272.755 97.4624 274.858 98.9482Z" fill="#DFC7A3"/>
<path d="M228.604 72.7922C227.408 72.0289 222.302 69.2698 227.135 63.5228C230.81 59.1607 241.133 49.6187 241.133 49.6187C241.133 49.6187 245.968 46.5625 250.798 49.7659C254.656 52.3232 268.272 59.4497 268.272 59.4497C268.272 59.4497 273.02 60.881 265.353 69.6515C259.347 76.5327 255.71 79.8751 255.71 79.8751C255.71 79.8751 250.981 84.6298 242.446 80.7476C233.912 76.8653 228.604 72.7922 228.604 72.7922Z" fill="#CEAB76"/>
<path d="M227.504 72.0642C231.531 67.4894 240.997 58.7353 240.997 58.7353C240.997 58.7353 245.832 55.6818 250.665 58.8825C253.788 60.9545 263.317 66.0227 266.822 67.8793C272.357 60.6955 268.278 59.4578 268.278 59.4578C268.278 59.4578 254.659 52.3312 250.804 49.774C245.974 46.5706 241.139 49.6267 241.139 49.6267C241.139 49.6267 230.815 59.1688 227.141 63.5309C223.291 68.0974 225.74 70.7746 227.504 72.0642Z" fill="#DFC7A3"/>
<path d="M186.94 45.4964C185.867 44.7821 181.275 42.1922 185.761 37.0613C189.171 33.1599 198.705 24.6621 198.705 24.6621C198.705 24.6621 203.147 21.9685 207.48 24.9565C210.942 27.3447 223.187 34.0432 223.187 34.0432C223.187 34.0432 227.477 35.4228 220.37 43.2609C214.795 49.4087 211.439 52.383 211.439 52.383C211.439 52.383 207.071 56.6224 199.379 52.9528C191.688 49.2832 186.94 45.4964 186.94 45.4964Z" fill="#CEAB76"/>
<path d="M185.951 44.8176C189.687 40.7282 198.429 32.9392 198.429 32.9392C198.429 32.9392 202.871 30.2456 207.204 33.2336C210.008 35.1666 218.576 39.9294 221.729 41.6688C226.876 35.2347 223.19 34.0351 223.19 34.0351C223.19 34.0351 210.945 27.3366 207.483 24.9484C203.15 21.9495 198.707 24.6539 198.707 24.6539C198.707 24.6539 189.173 33.1518 185.763 37.0532C182.195 41.1453 184.371 43.6208 185.951 44.8176Z" fill="#DFC7A3"/>
<path d="M149.824 26.6714C148.839 25.998 144.62 23.5334 148.847 18.8442C152.06 15.2673 161.008 7.5355 161.008 7.5355C161.008 7.5355 165.16 5.10092 169.133 7.92809C172.308 10.1882 183.56 16.5623 183.56 16.5623C183.56 16.5623 187.513 17.8982 180.829 25.0601C175.579 30.6818 172.431 33.389 172.431 33.389C172.431 33.389 168.336 37.2576 161.251 33.7516C154.165 30.2456 149.824 26.6714 149.824 26.6714Z" fill="#CEAB76"/>
<path d="M148.918 26.0307C152.435 22.2957 160.639 15.1991 160.639 15.1991C160.639 15.1991 164.792 12.7645 168.765 15.5917C171.336 17.4211 179.205 21.9522 182.102 23.607C186.959 17.7155 183.563 16.5623 183.563 16.5623C183.563 16.5623 172.308 10.1882 169.136 7.92809C165.163 5.10092 161.011 7.5355 161.011 7.5355C161.011 7.5355 152.077 15.2673 148.847 18.8442C145.486 22.5765 147.468 24.8966 148.918 26.0307Z" fill="#DFC7A3"/>
<path d="M187.188 243.881C183.527 244.903 179.087 245.056 174.02 243.191C158.954 237.649 17.4 153.316 4.31645 137.479C3.04248 135.623 2.40803 133.404 2.509 131.157C-2.95157 150.74 7.88494 166.779 7.88494 166.779C20.9685 182.616 162.523 266.948 177.589 272.491C180.375 273.549 183.347 274.028 186.325 273.9C187.461 263.777 187.592 253.488 187.188 243.881Z" fill="#DFC7A3"/>
<path d="M265.275 126.298C269.081 107.746 281.487 104.447 268.807 86.9879C270.077 76.0828 268.808 70.6302 257.398 65.1612C249.788 60.7991 242.182 65.1612 234.572 59.7086C232.036 57.5276 232.036 50.9845 230.769 48.8034C219.357 35.7172 221.893 38.9888 204.141 34.6267C195.265 32.4456 180.049 24.812 171.172 24.812C163.566 24.812 159.76 30.2646 153.426 31.3551C149.62 32.4456 140.746 33.5362 135.679 34.6267C115.39 40.0793 116.474 32.3393 111.401 49.8013C107.598 66.159 112.941 64.4524 97.7224 69.9104C76.1667 76.4535 79.8854 76.0964 74.8152 94.6488C70.1983 111.527 70.1738 120.584 72.1914 125.96C75.0309 133.55 79.2738 133.062 85.6572 141.048C98.0391 156.541 88.8871 166.893 99.2377 188.788C107.685 206.651 116.37 205.252 118.699 219.565C121.047 234.014 113.61 244.006 119.537 249.636C123.226 253.142 130.71 253.633 134.174 250.473C139.343 245.759 132.263 235.939 136.684 219.148C138.879 210.743 141.838 208.635 142.794 208.033C148.527 204.371 157.417 206.634 162.616 211.193C168.622 216.449 169.234 224.342 169.715 232.073C170.916 250.819 163.271 259.238 168.186 264.813C172.079 269.227 181.96 269.707 186.033 265.484C191.469 259.852 183.218 249.309 184.458 225.195C184.791 218.698 185.782 211.836 190.803 208.406C191.573 207.883 194.503 205.887 197.744 206.596C205.484 208.295 208.201 223.927 208.87 227.788C210.478 237.041 208.87 241.168 211.966 243.349C215.34 245.738 222.458 244.483 225.344 240.427C230.846 232.709 214.628 220.596 219.55 206.653C221.462 201.201 226.073 196.907 229.106 194.069C232.625 190.784 236.623 188.053 240.964 185.969C242.354 179.472 246.066 173.703 251.405 169.739C255.929 167.589 259.864 164.376 262.872 160.374C264.613 158.062 266 155.504 266.986 152.784C270.79 141.871 262.741 137.209 265.275 126.298Z" fill="#BA6828"/>
<path d="M241.589 180.007C237.388 182.899 237.221 186.023 236.129 189.39C237.751 188.492 239.284 187.441 240.705 186.25C243.558 183.183 243.902 180.293 244.781 177.575C243.671 178.323 242.606 179.135 241.589 180.007Z" fill="#834020"/>
<path d="M90.0587 78.3619C101.01 74.436 101.313 74.2207 102.039 68.3101C100.822 68.7735 99.3936 69.2861 97.7144 69.8886C82.5259 74.5042 79.8857 75.6874 77.8789 82.4759C80.6556 81.2681 84.5217 80.044 90.0587 78.3619Z" fill="#834020"/>
<path d="M265.275 126.298C269.081 107.746 281.487 104.447 268.808 86.9879C270.077 76.0828 268.808 70.6302 257.398 65.1612C249.788 60.7991 242.182 65.1612 234.573 59.7086C232.036 57.5276 232.036 50.9845 230.769 48.8034C219.357 35.7172 221.893 38.9888 204.141 34.6267C195.265 32.4456 180.049 24.812 171.173 24.812C163.566 24.812 159.76 30.2646 153.426 31.3551C149.62 32.4456 140.746 33.5362 135.679 34.6267C117.198 39.5994 116.45 33.618 112.63 45.7118C115.677 45.341 120.302 45.1665 128.021 43.1C133.093 42.0095 141.97 40.919 145.767 39.8285C152.107 38.7379 155.913 33.2853 163.514 33.2853C172.39 33.2853 187.606 40.919 196.482 43.1C214.229 47.4621 211.698 44.1905 223.111 57.2768C224.378 59.4578 224.378 66.0009 226.914 68.1819C234.521 73.6345 242.13 69.2725 249.737 73.6345C261.149 79.0871 262.416 84.5397 261.149 95.4585C273.829 112.92 261.422 116.219 257.616 134.769C255.083 145.674 263.129 150.344 259.328 161.258C259.055 162.144 258.749 162.951 258.438 163.692C262.05 161.653 264.936 159.246 266.984 152.787C270.79 141.874 262.741 137.209 265.275 126.298Z" fill="#834020"/>
<path d="M134.002 44.5804C132.563 44.9485 127.682 46.268 123.807 50.7528C118.568 56.8215 118.011 65.3984 119.51 66.0473C120.891 66.6443 123.179 60.1639 131.621 54.4305C133.856 52.9052 136.245 51.6195 138.75 50.5946C146.198 47.6339 151.181 48.6453 151.309 47.672C151.451 46.3689 142.794 42.3312 134.002 44.5804Z" fill="#DEC1B6"/>
<path d="M85.4577 97.874C84.5158 100.328 81.4306 108.76 83.9752 118.967C87.4181 132.779 99.3057 142.378 101.785 140.87C104.067 139.486 97.0014 129.524 97.3236 111.426C97.3977 106.627 97.9807 101.848 99.0627 97.1707C102.394 83.3483 108.974 77.1651 107.677 76.001C105.935 74.4279 91.205 82.844 85.4577 97.874Z" fill="#DEC1B6"/>
<path d="M120.867 243.731C121.104 245.125 121.763 246.413 122.754 247.422C124.728 249.391 127.695 249.802 127.957 249.301C128.22 248.799 126.008 247.878 124.228 244.822C123.755 244.008 123.369 243.147 123.076 242.253C122.238 239.598 122.715 237.891 122.379 237.831C121.934 237.733 120.31 240.628 120.867 243.731Z" fill="#DEC1B6"/>
<path d="M213.702 239.424C214.144 240.326 214.853 241.071 215.733 241.558C217.475 242.502 219.58 242.185 219.657 241.79C219.733 241.395 218.04 241.215 216.208 239.481C215.722 239.022 215.286 238.513 214.906 237.962C213.798 236.326 213.781 235.067 213.541 235.091C213.216 235.121 212.689 237.422 213.702 239.424Z" fill="#DEC1B6"/>
</g>
<defs>
<clipPath id="clip0_316_1763">
<rect width="342.547" height="282" fill="white"/>
</clipPath>
</defs>
</svg>
