<svg id="Layer_1" data-name="Layer 1" xmlns="http://www.w3.org/2000/svg" viewBox="0 0 257.23 226.18"><defs><style>.cls-1,.cls-6{fill:#eae8e5;}.cls-1,.cls-2,.cls-7{stroke:#231f20;stroke-miterlimit:10;}.cls-1{stroke-width:3px;}.cls-2,.cls-7{fill:none;}.cls-3{fill:#a99ec1;}.cls-4{fill:#ccc3e1;}.cls-5{fill:#e7e1f0;}.cls-7{stroke-width:5px;}.cls-8{fill:#fff;}.cls-9{fill:#e32029;}.cls-10{fill:#fdfdfc;}.cls-11{fill:#fdf5a1;}.cls-12{fill:#3fb9e8;}.cls-13{fill:#089857;}</style></defs><path class="cls-1" d="M3.07,118.81c3.54-10,11.88-15.41,19.56-20.22,14.16-8.87,27.6-11.38,42.05-13.48,26.18-3.8,40.4-5.94,64.34-5.79a327,327,0,0,1,75.92,8.86h0c0,13.92,9.51,2,27.65,11,5.36,2.67,12.42,7.64,19,17.75a20.19,20.19,0,0,1,3.38,6.68,19.89,19.89,0,0,1,.73,6.89,45.94,45.94,0,0,1-.56,5.55c-1.43,8.87-6,16.38-9.34,22.07-.07.11-.53.91-1,1.66C227,189,206,203.52,206,203.52a111.21,111.21,0,0,1-30.35,14.57c-23.82,7.8-43.9,6.83-56.17,6.13-11.19-.64-23-1.31-37.79-6.34-24.62-8.37-39.83-22.81-47.31-30-17.21-16.44-24-31.37-25.54-34.72C4,142.23-1.17,130.79,3.07,118.81Z"/><path class="cls-2" d="M21.79,133.45A151.53,151.53,0,0,1,47,120.52c18-7.2,32.59-9,46-10.56,6-.7,33.35-3.67,69.79,1,17.62,2.27,32.45,4.3,50.72,12.26A147.07,147.07,0,0,1,239,137.54"/><path class="cls-3" d="M93.25,0a33.09,33.09,0,0,1,.55,8.89c-.18,2.43-.57,3.72.11,5.36,1,2.43,3.54,3.63,5.3,4.31,7.63,3,16.43,2.42,18.23,2.32a128.18,128.18,0,0,1,24.19,1.32,67.85,67.85,0,0,1,23.86,9c9,5.46,24,17.51,25.52,28.17a8.14,8.14,0,0,0,2,5c2.61,2.64,6.24,1.25,11.91,3,1.9.59,3.59,1.6,7,3.6,8,4.71,12.55,7.43,16.24,12.93a32.4,32.4,0,0,1,4.41,10.22,30.53,30.53,0,0,1,1.23,12.65c-.66,4.71-2.2,6-1.33,8.61,1,3.12,3.82,3.51,6.63,6,6,5.22,7.73,16,4.31,22.87-1.73,3.45-4.64,5.56-10.94,8.61-17.12,8.3-29.83,9.95-29.83,9.95-42.79,5.54-67.61,5.63-67.61,5.63-25.21.09-37.83.13-56.34-1.66-19.17-1.85-64.08-6.18-66.74-21.13-.56-3.12.66-7.08,1.45-9.69,2.47-8,7.33-12.93,10.61-16.24,4.38-4.41,7-7.08,11.6-8.62,4-1.34,7.36-1.12,8-3,.51-1.58-1.61-2.67-3.64-6.29a24.06,24.06,0,0,1-2.65-11.27c0-1.81.41-5.47,3.31-10.61,3.81-6.74,8-8.86,17.23-16.57,9.63-8,14.45-12,16.58-16.57,3.72-8,4-18.71,4-19.22.09-5.31-.72-8,1-12.26S83.91,8.07,86,6a41.44,41.44,0,0,1,7.3-6"/><path class="cls-4" d="M93.25,0a21.68,21.68,0,0,0-5,12.59c-.1,2.4-.29,7,2.66,10,2.17,2.17,4.88,2.28,10.27,2.65,0,0,7.32.49,19.55,1.65a116.59,116.59,0,0,1,17.24,3c8.65,2.12,14.26,3.5,20.55,7.29,5.45,3.29,13.57,8.19,16.9,18.23.45,1.36,3.57,11.3-1.33,21.21C169.94,85,162.48,88.3,151.58,93.13c-8.24,3.65-21.2,9.38-37.79,8-17.08-1.47-28.87-9.74-29.82-8-.67,1.24,4.75,5.62,9.28,8.28,3.61,2.13,8.5,4.25,17.56,5.64a85.24,85.24,0,0,0,26.51.33c16.15-2.38,26.92-8.74,35.13-13.59,10.54-6.22,15-11.15,17.57-16.9.41-.93-.05-3.72,1.66-5,1.37-1,3.47-.76,6.29.33,3.86,1.48,11.6,4.45,16.24,12.92,4,7.34,5.18,17.81.33,25.85-3.79,6.29-9.66,8.45-20.54,12.27-7.31,2.56-15.07,4.37-39.44,7-13.84,1.46-20.76,2.2-25.52,2.32-25.86.65-43.64-4.49-44.08-2.65-.26,1.1,6,3.53,9.28,4.64,10.61,3.62,19.29,3.59,25.85,3.64,25.35.19,20.14,1.5,34.14,1,16.51-.6,25.77-.93,37.78-4.31,14.47-4.08,21.7-6.12,24.85-8.29a20,20,0,0,1,9.95-3.64,9.78,9.78,0,0,1,6,1c3.7,2.21,4.74,7.53,4.31,10.94-.34,2.73-2.15,8.34-14.25,14.25-21,10.27-48.37,9.36-95.12,10.6-16.67.45-33.37-.35-50,.33a186.35,186.35,0,0,1-25.85-1.32c-13.58-1.53-20.4-3.63-25.19-8.95-1.43-1.59-4.46-5.06-4.31-9.61.18-5.21,4.41-8.74,8.62-12.26,3.55-3,9.21-7.7,17.23-8.62,11.58-1.33,20.93,6.1,21.55,5,.4-.73-3.9-3.2-9.62-9-4.23-4.25-6.61-6.64-8.28-10.6a25.54,25.54,0,0,1-1-15.58,28,28,0,0,1,6.63-12.59,29.77,29.77,0,0,1,12.93-8c2.71-.93,3.74-.92,15.91-2.32,10.47-1.2,13.27-1.61,15.57-2,8.33-1.36,12.57-2.08,15.91-4.3,1.63-1.09,7.54-5,8.29-11.6a13.62,13.62,0,0,0-1-6.63c-1.58-3.85-4.87-6.77-5.63-6.3s1,2.65,1.32,7c.16,1.87.52,6.2-1.65,9.28-1,1.46-2.34,2.22-9.28,4.31a143,143,0,0,1-16.24,4c-8,1.46-10,1.32-11.6,0a6.48,6.48,0,0,1-2.32-5.31c.28-3.19,3.36-3.52,6.63-8.28a16.54,16.54,0,0,0,3.31-8.95,17.16,17.16,0,0,0-1.66-7.29c-1.44-3.4-2.63-3.79-3.64-6.63a16.26,16.26,0,0,1-.67-7.29C84.44,7.47,91.94,1.08,93.25,0Z"/><path class="cls-5" d="M155.55,42.42a27.75,27.75,0,0,1,7.63,4.64c1.49,1.28,6.23,5.37,7.95,11.6,3.12,11.33-6.06,21.53-7.29,22.87-3.73,4-8,5.83-16.24,9.28-13,5.4-25.88,8.22-26.18,7.29-.19-.56,4.25-2,15.24-7.62,8.45-4.29,12.75-6.5,16.24-9.61,4.41-3.93,9.47-8.45,9.94-14.92.19-2.5-1.42-7.11-4.64-16.24-1.07-3-2-5.55-2.65-7.29"/><path class="cls-5" d="M199.14,80.13A21,21,0,0,1,205.19,83c1.21.85,5.07,3.53,6.83,8,3.2,8.22-2.86,16.54-3.68,17.63-2.47,3.29-5.48,5-11.4,8.18-9.26,5-18.67,8.13-19,7.46-.18-.4,3-1.85,10.78-6.86,6-3.86,9-5.83,11.38-8.43,3-3.27,6.42-7,6.27-11.9-.06-1.87-1.61-5.19-4.72-11.76-1-2.18-1.92-4-2.54-5.23"/><path class="cls-5" d="M78.66,71.56a21.56,21.56,0,0,0-16.88,5.32c-6.81,6.73-5.25,17.44-5,18.86.69,4.26,2.63,7.17,6.49,12.81,6,8.82,13.12,15.81,13.71,15.28.35-.32-1.87-3.09-6.55-11.26-3.61-6.29-5.43-9.51-6.35-13-1.16-4.46-2.49-9.6,0-14.31.94-1.82,3.93-4.43,9.87-9.57,2-1.72,3.64-3.12,4.79-4.08"/><path class="cls-5" d="M42.91,126.44a15.8,15.8,0,0,0-4.34,1.32,11,11,0,0,0-5,4.25c-2.44,4.56,1.64,9.72,2.19,10.4,1.67,2,3.76,3.18,7.87,5.38,6.42,3.45,13,5.79,13.22,5.42s-2.09-1.25-7.46-4.6c-4.13-2.57-6.22-3.89-7.84-5.53-2-2.06-4.37-4.43-4.15-7.23.08-1.09,1.25-2.91,3.59-6.53.78-1.2,1.45-2.19,1.92-2.88"/><path class="cls-6" d="M8.85,129.34a70.2,70.2,0,0,0,1.37,11c8,39.28,47.54,60.36,56.51,65.15,38.57,20.58,77.38,15.12,95.53,9.9.69-.2,3.79-1.1,8-2.59,11.05-3.93,34-12.4,53.78-33.79a123.34,123.34,0,0,0,20.68-31c5-10.2,7.86-19.11,7.24-19.4s-2.38,5-7.49,9.44c-3,2.59-5.92,3.68-13.28,5.75a250.42,250.42,0,0,1-28.47,6.64c-6.51,1.12-12,1.85-15.44,2.29-4.15.55-8.22,1.08-13.28,1.54-7.8.7-9.12.43-23.36,1.14-9.41.48-9.84.65-15.07.77-7,.16-7.64-.11-16.08-.13-15.5,0-19.13.89-30.13,0-1.36-.11-4.83-.41-9.32-1-7.19-1-11-2-19.4-3.57-10.83-2.09-9.39-1.42-14.43-2.56-10.08-2.27-17.41-3.93-24.38-8.93A41.81,41.81,0,0,1,8.51,123.71"/><path class="cls-7" d="M10.56,122.22a44,44,0,0,0,10.89,14.64,44.89,44.89,0,0,0,14,8.17c17,6.52,34.85,8.17,41.12,8.71,26,2.23,45.57,2.48,51.54,2.53,20.5.17,34.4-.6,38.33-.83,14.84-.87,24.15-2.07,34.38-3.41,4.06-.53,11.11-2.05,25.2-5.1,4.74-1,13-2.92,18.39-8.8a21.08,21.08,0,0,0,5.45-15.91"/><path class="cls-8" d="M234.65,158.59c.22-.48.83-1.85,1.71-4.34,1.72-4.92,1.85-6.74,2.38-6.73s1.31,2.86,1.19,5.45a17.1,17.1,0,0,1-1,4.6,43.55,43.55,0,0,1-2.55,6.29,34.28,34.28,0,0,1-2.9,5.28,33.27,33.27,0,0,1-4.34,4.94,34.14,34.14,0,0,1-4.68,4.08,31,31,0,0,1-5.87,3.24,26.4,26.4,0,0,1-6.3,2c-1.57.27-5.26.72-5.45,0s3.21-1.76,9.11-5.2a75.84,75.84,0,0,0,6.73-4.39c3.05-2.25,4.66-3.46,6.38-5.62a40.4,40.4,0,0,0,3.4-5.36A46.83,46.83,0,0,0,234.65,158.59Z"/><path class="cls-9" d="M119.18,66.55a4.15,4.15,0,0,1-.35,1.63,6.77,6.77,0,0,1-.91,1.56,22.49,22.49,0,0,1-1.59,1.8c-.78.79-1.6,1.52-2.45,2.23S112,75.27,111,76a15.24,15.24,0,0,1-2.92,1.65,5.89,5.89,0,0,1-1.31.42,3.7,3.7,0,0,1-.88.08,1.47,1.47,0,0,1-.64-.21.69.69,0,0,1-.35-.59,1.7,1.7,0,0,1,0-.45,7.06,7.06,0,0,1,.4-1.43,11,11,0,0,1,.76-1.49,26.2,26.2,0,0,1,2-2.88,26.61,26.61,0,0,1,3.41-3.55,14.6,14.6,0,0,1,3.36-2.19,7.57,7.57,0,0,1,1.74-.58,3.42,3.42,0,0,1,1.06-.06,1.67,1.67,0,0,1,.58.16,1.27,1.27,0,0,1,.7.72,2.26,2.26,0,0,1,.17.75A1.85,1.85,0,0,1,119.18,66.55Z"/><path class="cls-10" d="M139.47,108.25a4.31,4.31,0,0,0,.34,1.62,6.57,6.57,0,0,0,.91,1.56,21.18,21.18,0,0,0,1.6,1.8,30.53,30.53,0,0,0,2.45,2.24c.92.76,1.86,1.5,2.83,2.19a15.36,15.36,0,0,0,2.92,1.66,7.68,7.68,0,0,0,1.31.42,3.74,3.74,0,0,0,.88.07,1.3,1.3,0,0,0,.64-.2.73.73,0,0,0,.36-.59,2.23,2.23,0,0,0,0-.45,8.65,8.65,0,0,0-.4-1.43,11.72,11.72,0,0,0-.76-1.5,27.07,27.07,0,0,0-2-2.87,26.77,26.77,0,0,0-3.42-3.56,14.5,14.5,0,0,0-3.35-2.18,7.76,7.76,0,0,0-1.74-.59,3.44,3.44,0,0,0-1.06-.06,2.34,2.34,0,0,0-.59.16,1.35,1.35,0,0,0-.7.73,2.41,2.41,0,0,0-.17.75Z"/><path class="cls-11" d="M56.44,115a4.31,4.31,0,0,0,.34,1.62,6.47,6.47,0,0,0,.92,1.56,20.87,20.87,0,0,0,1.59,1.8,32.2,32.2,0,0,0,2.45,2.23c.92.76,1.86,1.51,2.84,2.2A15.24,15.24,0,0,0,67.5,126a5.89,5.89,0,0,0,1.31.42,3.25,3.25,0,0,0,.88.08,1.39,1.39,0,0,0,.63-.21.67.67,0,0,0,.36-.59,1.7,1.7,0,0,0,0-.45,7.15,7.15,0,0,0-.4-1.42,10.55,10.55,0,0,0-.76-1.5,25.17,25.17,0,0,0-2-2.87,26.69,26.69,0,0,0-3.41-3.56,14.6,14.6,0,0,0-3.36-2.19,7.57,7.57,0,0,0-1.74-.58,3.44,3.44,0,0,0-1.06-.06,1.79,1.79,0,0,0-.59.16,1.32,1.32,0,0,0-.7.73,2.14,2.14,0,0,0-.16.74A2,2,0,0,0,56.44,115Z"/><path class="cls-12" d="M132.35,30.85a4.14,4.14,0,0,0,.34,1.63A6.77,6.77,0,0,0,133.6,34c.5.63,1,1.22,1.6,1.8a32.39,32.39,0,0,0,2.45,2.23c.92.76,1.86,1.5,2.83,2.2a15.55,15.55,0,0,0,2.92,1.65,6.24,6.24,0,0,0,1.31.42,3.25,3.25,0,0,0,.88.08,1.43,1.43,0,0,0,.64-.21.73.73,0,0,0,.36-.59,1.71,1.71,0,0,0,0-.45,7.25,7.25,0,0,0-.4-1.43,12.22,12.22,0,0,0-.75-1.49,26.2,26.2,0,0,0-2-2.88A27.33,27.33,0,0,0,140,31.82a14.39,14.39,0,0,0-3.36-2.19,7.49,7.49,0,0,0-1.73-.58A3.49,3.49,0,0,0,133.8,29a1.67,1.67,0,0,0-.58.16,1.32,1.32,0,0,0-.7.73,2.41,2.41,0,0,0-.17.74Z"/><path class="cls-11" d="M194,73.64a4,4,0,0,1,.08,1.66,7,7,0,0,1-.48,1.74,21.51,21.51,0,0,1-1.09,2.14A30.09,30.09,0,0,1,190.69,82c-.69,1-1.41,1.93-2.18,2.85a15.25,15.25,0,0,1-2.41,2.34,5.81,5.81,0,0,1-1.16.73,2.94,2.94,0,0,1-.83.3,1.38,1.38,0,0,1-.67,0,.72.72,0,0,1-.49-.48,1.81,1.81,0,0,1-.09-.44,7.42,7.42,0,0,1,0-1.49,11.72,11.72,0,0,1,.36-1.64,26.06,26.06,0,0,1,1.23-3.29,26.32,26.32,0,0,1,2.4-4.31,14.86,14.86,0,0,1,2.69-3,7.44,7.44,0,0,1,1.54-1,3.33,3.33,0,0,1,1-.33,2.08,2.08,0,0,1,.61,0,1.34,1.34,0,0,1,.86.53,2.09,2.09,0,0,1,.35.68A1.8,1.8,0,0,1,194,73.64Z"/><path class="cls-9" d="M209.75,125.86a4,4,0,0,1,.08,1.66,7,7,0,0,1-.48,1.74,22.66,22.66,0,0,1-1.09,2.14,30.09,30.09,0,0,1-1.81,2.78c-.69,1-1.41,1.93-2.18,2.85a15.62,15.62,0,0,1-2.4,2.34,6.18,6.18,0,0,1-1.17.73,2.94,2.94,0,0,1-.83.3,1.28,1.28,0,0,1-.67,0,.68.68,0,0,1-.49-.48,1.65,1.65,0,0,1-.09-.43,7.41,7.41,0,0,1,0-1.49,11.72,11.72,0,0,1,.36-1.64,25.49,25.49,0,0,1,1.23-3.29,27.08,27.08,0,0,1,2.4-4.31,14.61,14.61,0,0,1,2.7-3,7.12,7.12,0,0,1,1.53-1,3.33,3.33,0,0,1,1-.33,1.79,1.79,0,0,1,.61,0,1.34,1.34,0,0,1,.86.53,2.15,2.15,0,0,1,.35.67A2,2,0,0,1,209.75,125.86Z"/><path class="cls-13" d="M89.34,21.11a4,4,0,0,0-.52,1.58,6.46,6.46,0,0,0,0,1.81,21.28,21.28,0,0,0,.48,2.35c.28,1.08.63,2.12,1,3.16s.86,2.23,1.36,3.32a15.59,15.59,0,0,0,1.71,2.89,6.84,6.84,0,0,0,.93,1,3.35,3.35,0,0,0,.72.51,1.51,1.51,0,0,0,.66.14.7.7,0,0,0,.6-.34,1.9,1.9,0,0,0,.21-.4,7.88,7.88,0,0,0,.36-1.43A10.52,10.52,0,0,0,97,34a24.11,24.11,0,0,0-.33-3.5,27.25,27.25,0,0,0-1.18-4.79,14.7,14.7,0,0,0-1.83-3.57,7.87,7.87,0,0,0-1.21-1.37,3.25,3.25,0,0,0-.89-.58,1.71,1.71,0,0,0-.59-.15,1.31,1.31,0,0,0-1,.28,2.25,2.25,0,0,0-.51.56A1.51,1.51,0,0,0,89.34,21.11Z"/><path class="cls-13" d="M63.56,74.48a4.14,4.14,0,0,0,.35,1.62,6.77,6.77,0,0,0,.91,1.56,22.49,22.49,0,0,0,1.59,1.8,32.54,32.54,0,0,0,2.46,2.23c.91.76,1.85,1.51,2.83,2.2a15.24,15.24,0,0,0,2.92,1.65,6.06,6.06,0,0,0,1.31.42,3.25,3.25,0,0,0,.88.08,1.47,1.47,0,0,0,.64-.21.68.68,0,0,0,.35-.59,1.7,1.7,0,0,0,0-.45,7.15,7.15,0,0,0-.4-1.42,10.55,10.55,0,0,0-.76-1.5,24,24,0,0,0-2-2.87,26.69,26.69,0,0,0-3.41-3.56,14.6,14.6,0,0,0-3.36-2.19,7.57,7.57,0,0,0-1.74-.58A3.42,3.42,0,0,0,65,72.61a1.67,1.67,0,0,0-.58.16,1.26,1.26,0,0,0-.7.73,2.15,2.15,0,0,0-.17.74A2,2,0,0,0,63.56,74.48Z"/><path class="cls-12" d="M209.88,103.55a4.23,4.23,0,0,0,.34,1.62,6.57,6.57,0,0,0,.91,1.56,21.18,21.18,0,0,0,1.6,1.8,30.53,30.53,0,0,0,2.45,2.24c.92.76,1.86,1.5,2.83,2.19a15.36,15.36,0,0,0,2.92,1.66,6.89,6.89,0,0,0,1.31.42,3.78,3.78,0,0,0,.89.07,1.3,1.3,0,0,0,.63-.2.7.7,0,0,0,.36-.59,2.26,2.26,0,0,0,0-.45,8.65,8.65,0,0,0-.4-1.43,12.42,12.42,0,0,0-.76-1.5,27.07,27.07,0,0,0-2-2.87,26.69,26.69,0,0,0-3.42-3.55,14.22,14.22,0,0,0-3.35-2.19,8.3,8.3,0,0,0-1.74-.59,3.44,3.44,0,0,0-1.06-.06,2.34,2.34,0,0,0-.59.16,1.35,1.35,0,0,0-.7.73,2.41,2.41,0,0,0-.17.75Z"/><path class="cls-10" d="M155.28,65.93a4.16,4.16,0,0,0-1.35,1,6.89,6.89,0,0,0-1.06,1.46c-.38.71-.7,1.44-1,2.19a32.12,32.12,0,0,0-1.05,3.14c-.33,1.15-.63,2.31-.88,3.48a15.58,15.58,0,0,0-.34,3.34,6.16,6.16,0,0,0,.15,1.36,3.08,3.08,0,0,0,.28.84,1.36,1.36,0,0,0,.45.5.69.69,0,0,0,.68.09,1.5,1.5,0,0,0,.4-.2,7.38,7.38,0,0,0,1.15-.94,10.19,10.19,0,0,0,1.06-1.3,24.82,24.82,0,0,0,1.82-3,26.68,26.68,0,0,0,1.88-4.56,14.26,14.26,0,0,0,.65-4,7.43,7.43,0,0,0-.16-1.82,3.54,3.54,0,0,0-.37-1,1.78,1.78,0,0,0-.39-.47,1.27,1.27,0,0,0-.94-.35,2.13,2.13,0,0,0-.75.15A1.45,1.45,0,0,0,155.28,65.93Z"/><path class="cls-10" d="M103.12,133.08a4.16,4.16,0,0,1,1.63-.32,6.33,6.33,0,0,1,1.79.23,21.76,21.76,0,0,1,2.28.76,32.91,32.91,0,0,1,3,1.38c1.06.55,2.11,1.12,3.13,1.75a15.52,15.52,0,0,1,2.66,2,6.34,6.34,0,0,1,.9,1,3.73,3.73,0,0,1,.42.79,1.48,1.48,0,0,1,.06.66.71.71,0,0,1-.41.56,1.92,1.92,0,0,1-.42.16,8,8,0,0,1-1.47.19,11.62,11.62,0,0,1-1.67-.12,25.07,25.07,0,0,1-3.44-.74,27,27,0,0,1-4.61-1.75,14.62,14.62,0,0,1-3.33-2.24,7.52,7.52,0,0,1-1.21-1.37,3.12,3.12,0,0,1-.47-.95,2.08,2.08,0,0,1-.09-.6,1.34,1.34,0,0,1,.4-.93,2.29,2.29,0,0,1,.62-.45Z"/><path class="cls-9" d="M110.28,125.66a4.19,4.19,0,0,1,.16,1.65,6.42,6.42,0,0,1-.41,1.77,22.52,22.52,0,0,1-1,2.19,31.38,31.38,0,0,1-1.67,2.86c-.65,1-1.32,2-2,3a15.65,15.65,0,0,1-2.29,2.45,6.21,6.21,0,0,1-1.13.79,3.3,3.3,0,0,1-.82.34,1.38,1.38,0,0,1-.67,0,.72.72,0,0,1-.51-.46,1.73,1.73,0,0,1-.12-.43,8.25,8.25,0,0,1,0-1.49,10.16,10.16,0,0,1,.28-1.65,24.62,24.62,0,0,1,1.07-3.35,26.73,26.73,0,0,1,2.19-4.42,14.83,14.83,0,0,1,2.55-3.09,7.91,7.91,0,0,1,1.48-1.08,3.36,3.36,0,0,1,1-.37,1.78,1.78,0,0,1,.61,0,1.28,1.28,0,0,1,.88.48,2.18,2.18,0,0,1,.38.66C110.24,125.52,110.25,125.59,110.28,125.66Z"/><path class="cls-12" d="M120.52,88.65a4.25,4.25,0,0,1,1.34,1,6.37,6.37,0,0,1,1,1.48,21.59,21.59,0,0,1,1,2.2,28.91,28.91,0,0,1,1,3.15c.31,1.16.59,2.32.82,3.49a15.69,15.69,0,0,1,.29,3.35,6.24,6.24,0,0,1-.16,1.36,3.43,3.43,0,0,1-.3.83,1.36,1.36,0,0,1-.45.5.69.69,0,0,1-.68.08,1.53,1.53,0,0,1-.4-.21,7,7,0,0,1-1.14-1,10.14,10.14,0,0,1-1-1.31,25.56,25.56,0,0,1-1.78-3A28.24,28.24,0,0,1,118.24,96a14.72,14.72,0,0,1-.6-4,8.07,8.07,0,0,1,.19-1.83,4,4,0,0,1,.39-1,1.91,1.91,0,0,1,.39-.46,1.33,1.33,0,0,1,1-.34,2.39,2.39,0,0,1,.75.16Z"/></svg>