<svg id="Layer_1" data-name="Layer 1" xmlns="http://www.w3.org/2000/svg" viewBox="0 0 118.4 113.51"><defs><style>.cls-1,.cls-6{fill:#eae8e5;}.cls-1,.cls-2,.cls-7{stroke:#231f20;stroke-miterlimit:10;}.cls-1{stroke-width:3px;}.cls-2,.cls-7{fill:none;}.cls-3{fill:#a99ec1;}.cls-4{fill:#ccc3e1;}.cls-5{fill:#e7e1f0;}.cls-7{stroke-width:5px;}.cls-8{fill:#fff;}.cls-9{fill:#e32029;}.cls-10{fill:#fdfdfc;}.cls-11{fill:#fdf5a1;}.cls-12{fill:#3fb9e8;}.cls-13{fill:#089857;}.cls-14{fill:#9d9d9c;isolation:isolate;opacity:0.33;}</style></defs><path class="cls-1" d="M2.21,52.88c1.61-4.45,5.39-6.86,8.88-9,6.43-4,12.53-5.06,19.09-6,11.88-1.69,18.33-2.64,29.2-2.58a151.37,151.37,0,0,1,34.46,4h0c0,6.19,4.31.89,12.55,4.89A21.87,21.87,0,0,1,115,52a8.91,8.91,0,0,1,1.54,3,8.79,8.79,0,0,1,.33,3.06,20.27,20.27,0,0,1-.26,2.47c-.65,4-2.72,7.29-4.24,9.83,0,0-.24.4-.45.73-8.08,13-17.61,19.47-17.61,19.47a51,51,0,0,1-13.78,6.49A67.23,67.23,0,0,1,55.05,99.8C50,99.51,44.61,99.21,37.9,97A56.49,56.49,0,0,1,16.42,83.62,50.49,50.49,0,0,1,4.83,68.17C2.63,63.3.29,58.21,2.21,52.88Z"/><path class="cls-2" d="M10.71,59.4a68.46,68.46,0,0,1,11.44-5.76c8.17-3.2,14.79-4,20.88-4.7a136.65,136.65,0,0,1,31.68.45c8,1,14.72,1.91,23,5.45a66.81,66.81,0,0,1,11.57,6.38"/><path class="cls-3" d="M43.14,0a14.21,14.21,0,0,1,.25,4,4.78,4.78,0,0,0,0,2.38,4,4,0,0,0,2.41,1.92,20.84,20.84,0,0,0,8.27,1,60.17,60.17,0,0,1,11,.59,31,31,0,0,1,10.83,4C80,16.32,86.82,21.68,87.51,26.42a3.61,3.61,0,0,0,.91,2.23c1.19,1.17,2.83.56,5.41,1.33A17,17,0,0,1,97,31.59c3.63,2.09,5.69,3.3,7.37,5.75a14.36,14.36,0,0,1,2,4.55,13.44,13.44,0,0,1,.56,5.63c-.3,2.1-1,2.67-.61,3.83.46,1.39,1.74,1.57,3,2.67a9.07,9.07,0,0,1,2,10.18c-.79,1.54-2.11,2.48-5,3.83a49.38,49.38,0,0,1-13.54,4.43A278.24,278.24,0,0,1,62.11,75c-11.45,0-17.17.06-25.57-.74-8.71-.82-29.09-2.75-30.3-9.4a10.1,10.1,0,0,1,.66-4.32,17.2,17.2,0,0,1,4.82-7.23c2-2,3.17-3.15,5.26-3.83,1.82-.6,3.34-.5,3.63-1.34s-.73-1.19-1.65-2.8a10.55,10.55,0,0,1-1.2-5,9.49,9.49,0,0,1,1.5-4.72c1.73-3,3.63-3.95,7.82-7.38,4.37-3.56,6.56-5.34,7.53-7.37a24.43,24.43,0,0,0,1.81-8.56c0-2.36-.33-3.56.46-5.46a12.31,12.31,0,0,1,3-4.14A18.6,18.6,0,0,1,43.17,0"/><path class="cls-4" d="M43.14,0a9.62,9.62,0,0,0-2.27,5.6c0,1.07-.13,3.12,1.21,4.45,1,1,2.22,1,4.66,1.18,0,0,3.33.22,8.88.74a54.59,54.59,0,0,1,7.82,1.33c3.93.95,6.47,1.56,9.33,3.25,2.47,1.46,6.16,3.64,7.67,8.11a12.87,12.87,0,0,1-.6,9.44c-1.89,3.73-5.27,5.2-10.22,7.35C65.88,43.07,60,45.62,52.47,45c-7.76-.65-13.11-4.33-13.54-3.56-.3.55,2.16,2.5,4.21,3.69a21.52,21.52,0,0,0,8,2.51,39.52,39.52,0,0,0,12,.14c7.33-1.06,12.21-3.89,15.94-6,4.78-2.76,6.81-5,8-7.52.18-.41,0-1.65.75-2.22.62-.45,1.57-.34,2.85.14A13,13,0,0,1,98,37.89c1.82,3.27,2.36,7.93.15,11.51-1.72,2.8-4.38,3.76-9.32,5.46C85.55,56,82,56.81,71,58c-6.28.65-9.42,1-11.58,1-11.74.29-19.81-2-20-1.18-.12.49,2.72,1.57,4.21,2.06a34.78,34.78,0,0,0,11.74,1.62c11.5.09,9.14.67,15.49.45,7.49-.27,11.7-.41,17.15-1.92,6.57-1.81,9.85-2.72,11.28-3.69a9.16,9.16,0,0,1,4.51-1.62,4.52,4.52,0,0,1,2.73.45c1.68,1,2.15,3.35,2,4.87-.15,1.21-1,3.71-6.46,6.34C92.44,71,80,70.55,58.8,71.11c-7.56.2-15.14-.16-22.69.14a86.71,86.71,0,0,1-11.73-.58c-6.17-.69-9.26-1.62-11.44-4A6.24,6.24,0,0,1,11,62.4c.08-2.31,2-3.89,3.91-5.45a14.75,14.75,0,0,1,7.82-3.84c5.25-.59,9.5,2.72,9.78,2.23.18-.33-1.77-1.43-4.37-4-1.92-1.89-3-2.95-3.75-4.72a11.12,11.12,0,0,1-.46-6.93,12.4,12.4,0,0,1,3-5.6,13.54,13.54,0,0,1,5.87-3.57c1.23-.41,1.7-.4,7.22-1,4.75-.53,6-.71,7.07-.89,3.78-.6,5.7-.92,7.22-1.91.74-.49,3.42-2.23,3.76-5.16a6,6,0,0,0-.45-3c-.72-1.71-2.21-3-2.56-2.8s.46,1.18.6,3.12A6.29,6.29,0,0,1,54.91,23c-.45.65-1.06,1-4.21,1.91a64.29,64.29,0,0,1-7.37,1.78c-3.63.65-4.54.59-5.27,0A2.84,2.84,0,0,1,37,24.34c.13-1.42,1.53-1.57,3-3.68a7.28,7.28,0,0,0,1.5-4,7.44,7.44,0,0,0-.75-3.24c-.65-1.52-1.19-1.69-1.65-2.95a7.18,7.18,0,0,1-.31-3.25C39.14,3.32,42.55.48,43.14,0Z"/><path class="cls-5" d="M71.42,18.88A12.52,12.52,0,0,1,74.88,21a10.9,10.9,0,0,1,3.61,5.16c1.42,5-2.75,9.58-3.31,10.18-1.69,1.78-3.63,2.59-7.37,4.13-5.9,2.4-11.74,3.66-11.88,3.24-.09-.25,1.93-.89,6.92-3.39,3.83-1.91,5.78-2.89,7.37-4.28,2-1.75,4.3-3.76,4.51-6.64.09-1.11-.65-3.16-2.11-7.23-.48-1.33-.9-2.47-1.2-3.24"/><path class="cls-5" d="M91.2,35.66A9.59,9.59,0,0,1,94,36.94a8.32,8.32,0,0,1,3.1,3.56c1.45,3.66-1.3,7.36-1.67,7.85-1.12,1.46-2.49,2.22-5.17,3.64-4.21,2.22-8.48,3.62-8.63,3.32s1.36-.82,4.9-3.05a25.58,25.58,0,0,0,5.16-3.76c1.36-1.45,2.91-3.11,2.85-5.29,0-.83-.73-2.31-2.15-5.24-.45-1-.87-1.78-1.15-2.32"/><path class="cls-5" d="M36.52,31.85a9.91,9.91,0,0,0-7.66,2.37c-3.09,3-2.38,7.76-2.27,8.39.31,1.9,1.19,3.19,2.95,5.7,2.72,3.93,6,7,6.22,6.8s-.85-1.37-3-5c-1.64-2.8-2.47-4.23-2.89-5.78-.52-2-1.13-4.28,0-6.37.43-.81,1.79-2,4.48-4.26.91-.77,1.66-1.39,2.18-1.82"/><path class="cls-5" d="M20.3,56.28a7.34,7.34,0,0,0-2,.58,5,5,0,0,0-2.27,1.89c-1.11,2,.74,4.33,1,4.63a11.23,11.23,0,0,0,3.57,2.4c2.92,1.53,5.9,2.58,6,2.41s-.95-.56-3.38-2a19,19,0,0,1-3.56-2.46c-.91-.92-2-2-1.89-3.22,0-.48.57-1.29,1.63-2.9.36-.54.66-1,.88-1.28"/><path class="cls-6" d="M4.84,57.57a29.87,29.87,0,0,0,.62,4.89C9.09,79.94,27,89.33,31.11,91.46c17.5,9.16,35.12,6.73,43.36,4.41.31-.09,1.72-.49,3.63-1.16,5-1.75,15.43-5.52,24.41-15a55,55,0,0,0,9.38-13.79c2.27-4.54,3.57-8.51,3.29-8.64s-1.08,2.23-3.4,4.2c-1.36,1.16-2.69,1.64-6,2.56a116.19,116.19,0,0,1-12.92,3c-3,.5-5.45.82-7,1-1.88.24-3.73.48-6,.68-3.54.31-4.14.19-10.6.51-4.27.21-4.46.29-6.84.34-3.18.07-3.47-.05-7.3-.06-7,0-8.68.4-13.67,0-.62,0-2.19-.18-4.23-.44-3.27-.45-5-.89-8.81-1.59-4.91-.93-4.26-.63-6.55-1.14-4.57-1-7.9-1.75-11.06-4a18.71,18.71,0,0,1-6.05-7.25"/><path class="cls-7" d="M5.61,54.4a19.78,19.78,0,0,0,4.94,6.51,20.43,20.43,0,0,0,6.36,3.64,72.2,72.2,0,0,0,18.66,3.88c11.8,1,20.69,1.1,23.4,1.12,9.3.08,15.61-.26,17.39-.37,6.74-.38,11-.92,15.61-1.51,1.84-.24,5-.92,11.44-2.27,2.15-.45,5.9-1.3,8.34-3.92a9.29,9.29,0,0,0,2.48-7.08"/><path class="cls-8" d="M107.32,70.58c.1-.21.38-.82.78-1.93.78-2.19.84-3,1.08-3s.59,1.27.54,2.42a7.61,7.61,0,0,1-.46,2,18.94,18.94,0,0,1-1.15,2.8,15,15,0,0,1-1.32,2.35,14.68,14.68,0,0,1-2,2.2,16,16,0,0,1-2.12,1.82A14.94,14.94,0,0,1,100,80.74a12.33,12.33,0,0,1-2.86.89c-.71.12-2.38.32-2.47,0s1.46-.79,4.13-2.32a32.35,32.35,0,0,0,3.06-2,13.72,13.72,0,0,0,2.9-2.5,18.71,18.71,0,0,0,1.54-2.39A21.17,21.17,0,0,0,107.32,70.58Z"/><path class="cls-9" d="M54.91,29.62a1.69,1.69,0,0,1-.16.73,2.86,2.86,0,0,1-.41.69c-.23.28-.47.55-.72.8a14.81,14.81,0,0,1-1.11,1c-.39.32-.86.67-1.31,1a7.14,7.14,0,0,1-1.33.73,2.54,2.54,0,0,1-.59.19,1.8,1.8,0,0,1-.4,0,.75.75,0,0,1-.29-.09.29.29,0,0,1-.16-.26.67.67,0,0,1,0-.2,3.58,3.58,0,0,1,.18-.64,5.19,5.19,0,0,1,.35-.66,9.57,9.57,0,0,1,.91-1.28,11,11,0,0,1,1.54-1.58,6.33,6.33,0,0,1,1.53-1,3.66,3.66,0,0,1,.79-.26,1.55,1.55,0,0,1,.48,0,.59.59,0,0,1,.26.07.56.56,0,0,1,.32.32.94.94,0,0,1,.08.33Z"/><path class="cls-10" d="M64.12,48.18a2,2,0,0,0,.16.72,2.92,2.92,0,0,0,.41.7c.23.28.47.54.73.8a13.07,13.07,0,0,0,1.11,1c.42.34.84.67,1.28,1a7.18,7.18,0,0,0,1.33.74,3.09,3.09,0,0,0,.59.18,1.35,1.35,0,0,0,.4,0,.6.6,0,0,0,.29-.08.35.35,0,0,0,.17-.27v-.2a4.57,4.57,0,0,0-.19-.63,4.22,4.22,0,0,0-.34-.67,12,12,0,0,0-2.46-2.86,6.54,6.54,0,0,0-1.52-1,3.69,3.69,0,0,0-.79-.27,1.55,1.55,0,0,0-.48,0,.9.9,0,0,0-.27.07.59.59,0,0,0-.32.32,1.3,1.3,0,0,0-.08.34Z"/><path class="cls-11" d="M26.44,51.18a1.83,1.83,0,0,0,.15.73,3.27,3.27,0,0,0,.42.69,7.76,7.76,0,0,0,.72.8,13.07,13.07,0,0,0,1.11,1c.42.34.85.68,1.29,1a7.06,7.06,0,0,0,1.33.71,3.12,3.12,0,0,0,.59.19,1.35,1.35,0,0,0,.4,0,.75.75,0,0,0,.29-.09A.29.29,0,0,0,32.9,56a.67.67,0,0,0,0-.2,3.58,3.58,0,0,0-.18-.64,4.17,4.17,0,0,0-.35-.66,10.5,10.5,0,0,0-.9-1.28,12.94,12.94,0,0,0-1.55-1.59,6.6,6.6,0,0,0-1.53-1,3.49,3.49,0,0,0-.79-.26,1.55,1.55,0,0,0-.48,0,.68.68,0,0,0-.27.07.57.57,0,0,0-.31.32,1,1,0,0,0-.08.33A.59.59,0,0,0,26.44,51.18Z"/><path class="cls-12" d="M60.89,13.73a1.83,1.83,0,0,0,.15.73,2.91,2.91,0,0,0,.42.67,6.76,6.76,0,0,0,.72.8c.36.35.73.68,1.12,1s.84.66,1.28,1a7.14,7.14,0,0,0,1.33.73,3.12,3.12,0,0,0,.59.19,1.35,1.35,0,0,0,.4,0,.75.75,0,0,0,.29-.09.3.3,0,0,0,.16-.26.67.67,0,0,0,0-.2,2.91,2.91,0,0,0-.18-.64,5.13,5.13,0,0,0-.34-.66,10.37,10.37,0,0,0-.91-1.29,12.77,12.77,0,0,0-1.56-1.56,6.54,6.54,0,0,0-1.52-1,3.18,3.18,0,0,0-.79-.26,1.67,1.67,0,0,0-.5,0,.77.77,0,0,0-.26.07.59.59,0,0,0-.32.32,1,1,0,0,0-.08.33Z"/><path class="cls-11" d="M88.87,32.78a1.64,1.64,0,0,1,0,.73,3,3,0,0,1-.22.78,10.64,10.64,0,0,1-.49,1c-.26.43-.53.85-.83,1.26a15.25,15.25,0,0,1-1,1.26,6.77,6.77,0,0,1-1.09,1.05,3.55,3.55,0,0,1-.53.32,1.32,1.32,0,0,1-.38.13.51.51,0,0,1-.3,0,.29.29,0,0,1-.22-.21.43.43,0,0,1,0-.19,2.5,2.5,0,0,1,0-.67,4.77,4.77,0,0,1,.16-.73A10.72,10.72,0,0,1,84.54,36a11,11,0,0,1,1.09-1.92,6.46,6.46,0,0,1,1.22-1.34,3.59,3.59,0,0,1,.7-.44,1.7,1.7,0,0,1,.45-.15h.28a.65.65,0,0,1,.39.24,1.08,1.08,0,0,1,.16.3Z"/><path class="cls-9" d="M96,56a1.68,1.68,0,0,1,0,.74,3.06,3.06,0,0,1-.22.77,8.6,8.6,0,0,1-.5.95,12.66,12.66,0,0,1-.82,1.24,15.41,15.41,0,0,1-1,1.27,7.17,7.17,0,0,1-1.09,1,2.62,2.62,0,0,1-.53.33,1.63,1.63,0,0,1-.37.13.55.55,0,0,1-.31,0,.31.31,0,0,1-.22-.21.71.71,0,0,1,0-.2,3.64,3.64,0,0,1,0-.66,5.93,5.93,0,0,1,.16-.73,10.72,10.72,0,0,1,.56-1.46,11.72,11.72,0,0,1,1.09-1.92A6.51,6.51,0,0,1,94,56a3.52,3.52,0,0,1,.69-.44,1.83,1.83,0,0,1,.45-.15,1.31,1.31,0,0,1,.28,0,.6.6,0,0,1,.39.24.87.87,0,0,1,.16.3A.3.3,0,0,1,96,56Z"/><path class="cls-13" d="M41.37,9.4a1.72,1.72,0,0,0-.24.7,2.68,2.68,0,0,0,0,.8c.06.36.13.71.22,1s.29.94.45,1.41.39,1,.62,1.47a6.52,6.52,0,0,0,.78,1.29,3,3,0,0,0,.42.45,1.46,1.46,0,0,0,.33.22.6.6,0,0,0,.3.07.32.32,0,0,0,.27-.16.56.56,0,0,0,.09-.17,3.55,3.55,0,0,0,.17-.64,6.31,6.31,0,0,0,.07-.76,13.72,13.72,0,0,0-.15-1.56,13.3,13.3,0,0,0-.54-2.13,6.52,6.52,0,0,0-.83-1.59,3.94,3.94,0,0,0-.55-.61,1.67,1.67,0,0,0-.4-.25.9.9,0,0,0-.27-.07.63.63,0,0,0-.46.12,1.37,1.37,0,0,0-.23.25A.54.54,0,0,0,41.37,9.4Z"/><path class="cls-13" d="M29.67,33.15a1.64,1.64,0,0,0,.16.72,2.68,2.68,0,0,0,.41.69q.35.42.72.81c.36.35.73.68,1.12,1s.84.67,1.28,1a6.89,6.89,0,0,0,1.33.73,2.54,2.54,0,0,0,.59.19,1.35,1.35,0,0,0,.4,0A.62.62,0,0,0,36,38.2a.29.29,0,0,0,.16-.26.67.67,0,0,0,0-.2,3.26,3.26,0,0,0-.18-.63,4.27,4.27,0,0,0-.35-.67,10.5,10.5,0,0,0-.9-1.28,12.85,12.85,0,0,0-1.55-1.58,6.44,6.44,0,0,0-1.53-1,3.49,3.49,0,0,0-.79-.26,1.73,1.73,0,0,0-.51,0,.77.77,0,0,0-.26.07.59.59,0,0,0-.32.32,1.32,1.32,0,0,0-.08.33A.41.41,0,0,0,29.67,33.15Z"/><path class="cls-12" d="M96.08,46.09a1.79,1.79,0,0,0,.15.72,3,3,0,0,0,.42.69,9.12,9.12,0,0,0,.72.8,13.13,13.13,0,0,0,1.12,1c.41.34.84.67,1.28,1a6.81,6.81,0,0,0,1.32.73,2.78,2.78,0,0,0,.6.19,1.35,1.35,0,0,0,.4,0,.5.5,0,0,0,.29-.09.29.29,0,0,0,.16-.26.67.67,0,0,0,0-.2,3.58,3.58,0,0,0-.18-.64,5.13,5.13,0,0,0-.34-.66,12,12,0,0,0-2.46-2.86,6.93,6.93,0,0,0-1.52-1,4.56,4.56,0,0,0-.79-.26,1.6,1.6,0,0,0-.49,0,.77.77,0,0,0-.26.07.59.59,0,0,0-.32.32,1.3,1.3,0,0,0-.08.34Z"/><path class="cls-10" d="M71.3,29.34a2,2,0,0,0-.62.45,3.13,3.13,0,0,0-.48.65c-.17.31-.31.64-.45,1s-.34.93-.48,1.4-.28,1-.4,1.55a7.46,7.46,0,0,0-.15,1.49,2.46,2.46,0,0,0,.07.6,1.29,1.29,0,0,0,.12.38.63.63,0,0,0,.21.22.34.34,0,0,0,.31,0l.18-.09a3,3,0,0,0,.52-.42,3.79,3.79,0,0,0,.48-.58,10.18,10.18,0,0,0,.83-1.33,11.62,11.62,0,0,0,.85-2,6,6,0,0,0,.3-1.78,3.14,3.14,0,0,0-.08-.81,1.72,1.72,0,0,0-.16-.45.91.91,0,0,0-.18-.21.61.61,0,0,0-.43-.15,1,1,0,0,0-.34.06Z"/><path class="cls-10" d="M47.62,59.23a2.11,2.11,0,0,1,.74-.14,2.84,2.84,0,0,1,.82.1,9.55,9.55,0,0,1,1,.34c.46.18.92.39,1.36.61s1,.5,1.42.78a7.12,7.12,0,0,1,1.21.89,3.47,3.47,0,0,1,.41.45,1.48,1.48,0,0,1,.19.35.7.7,0,0,1,0,.29.33.33,0,0,1-.19.25.62.62,0,0,1-.19.07,3.73,3.73,0,0,1-.67.09,5,5,0,0,1-.76-.06,12.34,12.34,0,0,1-1.56-.32,12.79,12.79,0,0,1-2.09-.78,6.71,6.71,0,0,1-1.51-1,3.53,3.53,0,0,1-.55-.61,1.19,1.19,0,0,1-.21-.42.84.84,0,0,1,0-.27.54.54,0,0,1,.18-.41.8.8,0,0,1,.28-.2Z"/><path class="cls-9" d="M50.87,55.93a1.83,1.83,0,0,1,.08.73,3,3,0,0,1-.19.79c-.13.33-.29.66-.45,1s-.49.86-.76,1.27-.6.89-.91,1.33a6.71,6.71,0,0,1-1,1.09,3,3,0,0,1-.51.36,2.39,2.39,0,0,1-.37.15.81.81,0,0,1-.31,0,.35.35,0,0,1-.23-.21.59.59,0,0,1,0-.19,3.64,3.64,0,0,1,0-.66,4.57,4.57,0,0,1,.12-.74,11.79,11.79,0,0,1,.49-1.49,12,12,0,0,1,1-2A6.39,6.39,0,0,1,48.89,56a3.16,3.16,0,0,1,.67-.48,1.81,1.81,0,0,1,.46-.17h.27a.62.62,0,0,1,.4.22.85.85,0,0,1,.17.29S50.86,55.9,50.87,55.93Z"/><path class="cls-12" d="M55.52,39.46a1.76,1.76,0,0,1,.61.44,3,3,0,0,1,.45.66c.17.32.32.64.46,1a12,12,0,0,1,.45,1.4c.14.52.27,1,.37,1.55A6.34,6.34,0,0,1,58,46a2.46,2.46,0,0,1-.07.6,1.63,1.63,0,0,1-.13.37.56.56,0,0,1-.21.22.32.32,0,0,1-.31,0,.81.81,0,0,1-.18-.1,2.7,2.7,0,0,1-.52-.44,5,5,0,0,1-.45-.58,11.76,11.76,0,0,1-1.63-3.37A6.36,6.36,0,0,1,54.21,41a3.75,3.75,0,0,1,.09-.82,1.85,1.85,0,0,1,.18-.44.68.68,0,0,1,.17-.21.64.64,0,0,1,.46-.15,1.37,1.37,0,0,1,.34.07Z"/><ellipse class="cls-14" cx="60.89" cy="111.42" rx="41.24" ry="2.09"/></svg>