<svg xmlns="http://www.w3.org/2000/svg" width="215.27" height="215.28" viewBox="0 0 215.27 215.28"><defs><style>.cls-1{fill:#2fbdb9;}.cls-2{fill:#ffb450;}.cls-3{fill:#fff;}</style></defs><g id="Layer_2" data-name="Layer 2"><g id="Layer_2-2" data-name="Layer 2"><path class="cls-1" d="M115.71,104.17c-1,2.7-13.16,28.75-38.44,51.78-8.1,7.38-14.67,13.84-19.63,18.28.77-17.86,1.18-35.63-.64-42-.49-1.75-2.92-5.88-5.84-5.93-2.68,0-4.75,3.46-5.52,4.79-4,6.85-7.66,34.29-10,56.58A107.71,107.71,0,0,1,.6,96.25,322.91,322.91,0,0,1,57.37,74.31c40-11.2,53.16-.65,55.6,1.45C124.26,85.45,116.73,101.56,115.71,104.17Z"/><path class="cls-2" d="M215.27,107.64a107.67,107.67,0,0,1-93.4,106.71c-12.39-11.32-27.1-23.12-41.39-34.83,27.56-25.76,46.4-49,56.26-63.11,10.58-15.17,22-41.62,11.11-60,0,0-5.24-7.07-7.8-8.51C92.54,21.05,28.14,59.29,6.23,71.48a107.65,107.65,0,0,1,209,36.16Z"/><path class="cls-1" d="M85.83,213.07a107.25,107.25,0,0,1-29.45-10.75c.16-4.18.38-8.88.61-13.83C65.5,194.87,76,204.47,85.83,213.07Z"/><path class="cls-2" d="M80.48,179.52c14.29,11.71,29,23.51,41.39,34.83-1.29.17-2.59.32-3.89.43q-5.1.5-10.34.5-4.48,0-8.88-.37a105.91,105.91,0,0,1-12.93-1.84C76,204.47,65.5,194.87,57,188.49c-.23,4.95-.45,9.65-.61,13.83a107.71,107.71,0,0,1-20.77-14.7c2.37-22.29,6-49.73,10-56.58.77-1.33,2.84-4.84,5.52-4.79,2.92,0,5.35,4.18,5.84,5.93,1.82,6.42,1.41,24.19.64,42,5-4.44,11.53-10.9,19.63-18.28,25.28-23,37.39-49.08,38.44-51.78s8.55-18.72-2.74-28.41c-2.44-2.1-15.62-12.65-55.6-1.45A322.91,322.91,0,0,0,.6,96.25,106.62,106.62,0,0,1,6.23,71.48C28.14,59.29,92.54,21.05,140.05,47.85c2.56,1.44,7.8,8.51,7.8,8.51,10.92,18.43-.53,44.88-11.11,60.05C126.88,130.53,108,153.76,80.48,179.52Z"/><path class="cls-3" d="M85.83,213.07h0C76,204.47,65.5,194.87,57,188.49c-.23,4.95-.45,9.65-.61,13.83h0a107.58,107.58,0,0,1-20.77-14.7h0c2.37-22.29,6-49.73,10-56.58.77-1.33,2.84-4.84,5.52-4.79,2.92,0,5.35,4.18,5.84,5.93,1.82,6.42,1.41,24.19.64,42,5-4.44,11.53-10.9,19.63-18.28,25.28-23,37.39-49.08,38.44-51.78s8.55-18.72-2.74-28.41c-2.44-2.1-15.62-12.65-55.6-1.45A322.91,322.91,0,0,0,.6,96.25c0-.63,0-1.25,0-1.88A106.25,106.25,0,0,1,6.11,71.55l.12-.07C28.14,59.29,92.54,21.05,140.05,47.85c2.56,1.44,7.8,8.51,7.8,8.51,10.92,18.43-.53,44.88-11.11,60.05-9.86,14.12-28.7,37.35-56.26,63.11,14.29,11.71,29,23.51,41.39,34.83h0c-1.45,0-2.3.3-3.89.43-3.79.31-6.09.43-9.89.46-2.6,0-6.6-.14-9.33-.33s-5.94-.56-8.75-1"/></g></g></svg>